<?xml version="1.0" encoding="UTF-8" standalone="no"?>
<!-- Created with Inkscape (http://www.inkscape.org/) -->

<svg
   xmlns:dc="http://purl.org/dc/elements/1.1/"
   xmlns:cc="http://creativecommons.org/ns#"
   xmlns:rdf="http://www.w3.org/1999/02/22-rdf-syntax-ns#"
   xmlns:svg="http://www.w3.org/2000/svg"
   xmlns="http://www.w3.org/2000/svg"
   xmlns:sodipodi="http://sodipodi.sourceforge.net/DTD/sodipodi-0.dtd"
   xmlns:inkscape="http://www.inkscape.org/namespaces/inkscape"
   width="99.444183mm"
   height="13.622855mm"
   viewBox="0 0 99.444185 13.622855"
   version="1.1"
   id="svg3942"
   inkscape:version="0.92.1 r15371"
   sodipodi:docname="cannahome.svg">
  <defs
     id="defs3936" />
  <sodipodi:namedview
     id="base"
     pagecolor="#ffffff"
     bordercolor="#666666"
     borderopacity="1.0"
     inkscape:pageopacity="0.0"
     inkscape:pageshadow="2"
     inkscape:zoom="1.979899"
     inkscape:cx="175.72923"
     inkscape:cy="26.939721"
     inkscape:document-units="mm"
     inkscape:current-layer="layer1"
     showgrid="false"
     inkscape:window-width="1440"
     inkscape:window-height="803"
     inkscape:window-x="0"
     inkscape:window-y="27"
     inkscape:window-maximized="1"
     showguides="false" />
  <metadata
     id="metadata3939">
    <rdf:RDF>
      <cc:Work
         rdf:about="">
        <dc:format>image/svg+xml</dc:format>
        <dc:type
           rdf:resource="http://purl.org/dc/dcmitype/StillImage" />
        <dc:title></dc:title>
      </cc:Work>
    </rdf:RDF>
  </metadata>
  <g
     inkscape:label="Layer 1"
     inkscape:groupmode="layer"
     id="layer1"
     transform="translate(184.79603,-77.010002)">
    <g
       transform="translate(-134.89515,-28.517048)"
       id="g5652">
      <path
         inkscape:connector-curvature="0"
         id="path5393"
         d="m 20.078205,189.46122 0.959114,-3.40651 3.604948,-0.99219 2.711979,1.85209 0.297657,3.57187 -3.901305,-2.06865 -1.426551,0.35079 z"
         style="fill:#6df568;fill-opacity:1;stroke:none;stroke-width:0.26458332px;stroke-linecap:butt;stroke-linejoin:miter;stroke-opacity:1"
         transform="translate(-5.1360622,-74.73757)" />
      <g
         aria-label="home"
         style="font-style:normal;font-variant:normal;font-weight:bold;font-stretch:normal;font-size:17.35369682px;line-height:1.25;font-family:comfortaa;-inkscape-font-specification:'comfortaa Bold';letter-spacing:-0.01735369px;word-spacing:0px;fill:#000000;fill-opacity:1;stroke:none;stroke-width:0.43384242"
         id="text4487-2">
        <path
           d="m 8.7648189,109.50105 q 1.1974051,0 2.1518581,0.52061 0.954454,0.52061 1.492418,1.52713 0.537965,0.98916 0.537965,2.39481 v 4.26901 q 0,0.38178 -0.260306,0.64208 -0.242951,0.24296 -0.624733,0.24296 -0.381781,0 -0.642086,-0.24296 -0.242952,-0.2603 -0.242952,-0.64208 v -4.26901 q 0,-1.40565 -0.763563,-2.11715 -0.7462088,-0.72886 -1.995675,-0.72886 -0.7288553,0 -1.3362346,0.29501 -0.5900257,0.29502 -0.9370997,0.79827 -0.3297202,0.50326 -0.3297202,1.12799 v 4.89375 q 0,0.38178 -0.2429518,0.64208 -0.2429517,0.24296 -0.6420868,0.24296 -0.3817813,0 -0.6420867,-0.24296 -0.2429518,-0.2603 -0.2429518,-0.64208 v -11.80052 q 0,-0.39913 0.2429518,-0.64208 0.2603054,-0.24296 0.6420867,-0.24296 0.3991351,0 0.6420868,0.24296 0.2429518,0.24295 0.2429518,0.64208 v 4.25166 q 0.5553183,-0.55532 1.3188809,-0.85033 0.7635627,-0.31237 1.6312475,-0.31237 z"
           style="font-style:normal;font-variant:normal;font-weight:bold;font-stretch:normal;font-family:comfortaa;-inkscape-font-specification:'comfortaa Bold';letter-spacing:-0.79374999px;fill:#000000;stroke-width:0.43384242"
           id="path4849-2"
           inkscape:connector-curvature="0" />
        <path
           inkscape:connector-curvature="0"
           id="path4851-2"
           transform="matrix(0.26458333,0,0,0.26458333,-6.7342607,-57.317875)"
           d="m 96.953125,630.5625 c -3.498069,0 -6.626133,0.78718 -9.380859,2.36133 -2.754729,1.53041 -4.897328,3.67301 -6.427735,6.42773 -1.530404,2.75472 -2.294922,5.90352 -2.294922,9.44532 0,2.37408 0.361485,4.57183 1.066407,6.60351 l 5.728515,-3.29297 c -8.85e-4,-0.004 -0.0011,-0.008 -0.002,-0.0117 l 8.970703,-5.14062 16.808596,8.95312 0.0273,-0.0508 1.89453,1.00391 c 1.09158,-2.42415 1.64453,-5.10996 1.64453,-8.06445 0,-3.5418 -0.7872,-6.6906 -2.36133,-9.44532 -1.5304,-2.75472 -3.67105,-4.89732 -6.42578,-6.42773 -2.711,-1.57415 -5.7937,-2.36133 -9.248042,-2.36133 z m 0,5.90234 c 2.23002,0 4.217765,0.52479 5.966795,1.57422 1.79276,1.0494 3.17084,2.51431 4.13281,4.39453 1.0057,1.88021 1.50782,4.00209 1.50782,6.36329 0,0.35152 -0.0224,0.69248 -0.0449,1.0332 l -2.58593,-1.38086 v -4.5 h -4.00196 v 2.36523 l -7.380855,-3.9375 -9.207031,5.28125 c 0.138311,-1.90592 0.605438,-3.65441 1.445312,-5.22461 1.005695,-1.88022 2.383778,-3.34513 4.132813,-4.39453 1.792761,-1.04943 3.805139,-1.57422 6.035156,-1.57422 z m -10.484375,18.05469 -5.560547,3.19336 c 0.07961,0.15391 0.152077,0.31123 0.236328,0.46289 1.530407,2.75472 3.673006,4.91805 6.427735,6.49219 2.754726,1.53041 5.88279,2.29687 9.380859,2.29687 3.498065,0 6.601495,-0.76646 9.312495,-2.29687 2.45051,-1.40029 4.41286,-3.2692 5.89454,-5.60352 l -5.65039,-2.99218 c -0.91446,1.40528 -2.10778,2.54651 -3.58985,3.41406 -1.74903,1.0494 -3.736775,1.57422 -5.966795,1.57422 -2.230017,0 -4.242395,-0.52482 -6.035156,-1.57422 -1.749035,-1.04942 -3.127118,-2.49163 -4.132813,-4.32813 -0.112109,-0.2096 -0.216794,-0.4231 -0.316406,-0.63867 z"
           style="font-style:normal;font-variant:normal;font-weight:bold;font-stretch:normal;font-family:comfortaa;-inkscape-font-specification:'comfortaa Bold';letter-spacing:-0.79374999px;fill:#000000;stroke-width:1.63971937" />
        <path
           d="m 35.525671,109.50105 q 1.509771,0 2.429517,0.98916 0.9371,0.98916 0.9371,2.75924 v 4.96316 q 0,0.38178 -0.242952,0.64208 -0.242952,0.24296 -0.642087,0.24296 -0.381781,0 -0.642086,-0.24296 -0.242952,-0.2603 -0.242952,-0.64208 v -4.96316 q 0,-1.05858 -0.537965,-1.59654 -0.520611,-0.55532 -1.405649,-0.55532 -0.902392,0 -1.492418,0.62473 -0.572672,0.62474 -0.572672,1.59654 v 4.89375 q 0,0.38178 -0.242952,0.64208 -0.242952,0.24296 -0.642087,0.24296 -0.381781,0 -0.642086,-0.24296 -0.242952,-0.2603 -0.242952,-0.64208 v -4.96316 q 0,-1.05858 -0.537965,-1.59654 -0.520611,-0.55532 -1.405649,-0.55532 -0.919746,0 -1.509772,0.62473 -0.572672,0.62474 -0.572672,1.59654 v 4.89375 q 0,0.38178 -0.242952,0.64208 -0.242951,0.24296 -0.642086,0.24296 -0.381782,0 -0.642087,-0.24296 -0.242952,-0.2603 -0.242952,-0.64208 v -7.7224 q 0,-0.39913 0.242952,-0.64208 0.260305,-0.24296 0.642087,-0.24296 0.381781,0 0.624733,0.24296 0.242952,0.22559 0.260305,0.60737 0.451196,-0.45119 1.075929,-0.69414 0.624734,-0.26031 1.353589,-0.26031 0.885038,0 1.579186,0.36443 0.711502,0.34707 1.162698,1.00651 0.520611,-0.64208 1.301527,-1.00651 0.780916,-0.36443 1.73537,-0.36443 z"
           style="font-style:normal;font-variant:normal;font-weight:bold;font-stretch:normal;font-family:comfortaa;-inkscape-font-specification:'comfortaa Bold';letter-spacing:-0.79374999px;fill:#000000;stroke-width:0.43384242"
           id="path4853-0"
           inkscape:connector-curvature="0" />
        <path
           d="m 49.543302,114.18655 q 0,0.32972 -0.225598,0.55532 -0.225598,0.20824 -0.572672,0.20824 h -6.594405 q 0.190891,1.21476 1.093283,1.96097 0.919746,0.74621 2.238627,0.74621 0.520611,0 1.075929,-0.19089 0.572672,-0.19089 0.9371,-0.46855 0.242952,-0.19089 0.572672,-0.19089 0.32972,0 0.520611,0.17353 0.312366,0.26031 0.312366,0.59003 0,0.31237 -0.277659,0.52061 -0.590026,0.46855 -1.475064,0.76356 -0.867685,0.29502 -1.665955,0.29502 -1.423003,0 -2.550993,-0.60738 -1.127991,-0.62474 -1.770077,-1.71802 -0.624734,-1.09328 -0.624734,-2.48158 0,-1.38829 0.590026,-2.48158 0.60738,-1.11063 1.665955,-1.71801 1.075929,-0.62474 2.429518,-0.62474 1.336234,0 2.308041,0.59003 0.971807,0.59003 1.492418,1.6486 0.520611,1.05858 0.520611,2.42952 z m -4.32107,-3.17573 q -1.26682,0 -2.06509,0.69415 -0.780917,0.69415 -0.989161,1.85685 h 5.778781 q -0.156183,-1.1627 -0.867685,-1.85685 -0.711501,-0.69415 -1.856845,-0.69415 z"
           style="font-style:normal;font-variant:normal;font-weight:bold;font-stretch:normal;font-family:comfortaa;-inkscape-font-specification:'comfortaa Bold';letter-spacing:-0.79374999px;fill:#000000;stroke-width:0.43384242"
           id="path4855-5"
           inkscape:connector-curvature="0" />
        <g
           sodipodi:insensitive="true"
           style="display:none"
           id="g5124">
          <path
             inkscape:connector-curvature="0"
             id="path5048"
             d="m 16.143929,115.85708 -1.471228,0.84491"
             style="fill:none;stroke:#0000ff;stroke-width:0.00590588;stroke-linecap:square;stroke-linejoin:miter;stroke-miterlimit:4;stroke-dasharray:none;stroke-opacity:0.5" />
          <path
             inkscape:connector-curvature="0"
             id="path5050"
             d="m 14.753159,116.65579 0.102941,0.17925"
             style="fill:none;stroke:#ff0000;stroke-width:0.00590588;stroke-linecap:square;stroke-linejoin:miter;stroke-miterlimit:4;stroke-dasharray:none;stroke-opacity:0.5" />
          <path
             inkscape:connector-curvature="0"
             id="path5052"
             d="m 15.396821,116.28614 0.102941,0.17925"
             style="fill:none;stroke:#ff0000;stroke-width:0.00590588;stroke-linecap:square;stroke-linejoin:miter;stroke-miterlimit:4;stroke-dasharray:none;stroke-opacity:0.5" />
          <path
             inkscape:connector-curvature="0"
             id="path5054"
             d="m 15.97152,115.95609 0.102941,0.17925"
             style="fill:none;stroke:#ff0000;stroke-width:0.00590588;stroke-linecap:square;stroke-linejoin:miter;stroke-miterlimit:4;stroke-dasharray:none;stroke-opacity:0.5" />
          <path
             inkscape:connector-curvature="0"
             id="path5056"
             d="m 15.994508,115.94289 0.102941,0.17925"
             style="fill:none;stroke:#ff0000;stroke-width:0.00590588;stroke-linecap:square;stroke-linejoin:miter;stroke-miterlimit:4;stroke-dasharray:none;stroke-opacity:0.5" />
          <path
             inkscape:connector-curvature="0"
             id="path5058"
             d="m 16.074965,115.89669 0.102941,0.17925"
             style="fill:none;stroke:#ff0000;stroke-width:0.00590588;stroke-linecap:square;stroke-linejoin:miter;stroke-miterlimit:4;stroke-dasharray:none;stroke-opacity:0.5" />
          <path
             inkscape:connector-curvature="0"
             id="path5060"
             d="m 15.97152,115.95609 0.102941,0.17925"
             style="fill:none;stroke:#ff0000;stroke-width:0.00590588;stroke-linecap:square;stroke-linejoin:miter;stroke-miterlimit:4;stroke-dasharray:none;stroke-opacity:0.5" />
          <path
             inkscape:connector-curvature="0"
             id="path5062"
             d="m 15.994508,115.94289 0.179411,0.31241"
             style="fill:none;stroke:#ff0000;stroke-width:0.00590588;stroke-linecap:square;stroke-linejoin:miter;stroke-miterlimit:4;stroke-dasharray:none;stroke-opacity:0.5" />
          <path
             inkscape:connector-curvature="0"
             id="path5064"
             d="m 16.074965,115.89669 0.294118,0.51214"
             style="fill:none;stroke:#ff0000;stroke-width:0.00590588;stroke-linecap:square;stroke-linejoin:miter;stroke-miterlimit:4;stroke-dasharray:none;stroke-opacity:0.5" />
          <path
             inkscape:connector-curvature="0"
             id="path5066"
             d="m 15.396821,116.28614 0.102941,0.17925"
             style="fill:none;stroke:#ff0000;stroke-width:0.00590588;stroke-linecap:square;stroke-linejoin:miter;stroke-miterlimit:4;stroke-dasharray:none;stroke-opacity:0.5" />
          <path
             inkscape:connector-curvature="0"
             id="path5068"
             d="m 14.753159,116.65579 0.102941,0.17925"
             style="fill:none;stroke:#ff0000;stroke-width:0.00590588;stroke-linecap:square;stroke-linejoin:miter;stroke-miterlimit:4;stroke-dasharray:none;stroke-opacity:0.5" />
          <path
             inkscape:connector-curvature="0"
             id="path5070"
             d="m 14.672701,116.70199 -0.205882,-0.3585"
             style="fill:none;stroke:#0000ff;stroke-width:0.00590588;stroke-linecap:square;stroke-linejoin:miter;stroke-miterlimit:4;stroke-dasharray:none;stroke-opacity:0.5" />
          <path
             inkscape:connector-curvature="0"
             id="path5072"
             d="m 16.143929,115.85708 -0.205882,-0.3585"
             style="fill:none;stroke:#0000ff;stroke-width:0.00590588;stroke-linecap:square;stroke-linejoin:miter;stroke-miterlimit:4;stroke-dasharray:none;stroke-opacity:0.5" />
          <path
             inkscape:connector-curvature="0"
             id="path5074"
             d="m 15.938047,115.49858 -1.471228,0.84491"
             style="fill:none;stroke:#0000ff;stroke-width:0.00590588;stroke-linecap:square;stroke-linejoin:miter;stroke-miterlimit:4;stroke-dasharray:none;stroke-opacity:0.5" />
          <path
             inkscape:connector-curvature="0"
             id="path5076"
             d="m 14.672701,116.70199 c 0.865459,1.50701 3.167808,0.89293 3.167808,-0.84491"
             style="fill:none;stroke:#ff0000;stroke-width:0.00590588;stroke-linecap:butt;stroke-linejoin:miter;stroke-miterlimit:4;stroke-dasharray:none;stroke-opacity:0.5" />
          <path
             inkscape:connector-curvature="0"
             id="path5078"
             d="m 16.143929,115.85708 h 1.69658"
             style="fill:none;stroke:#ff0000;stroke-width:0.00590588;stroke-linecap:square;stroke-linejoin:miter;stroke-miterlimit:4;stroke-dasharray:none;stroke-opacity:0.5" />
          <path
             inkscape:connector-curvature="0"
             id="path5080"
             d="m 14.653253,116.68254 0.0389,0.0389 m 0,-0.0389 -0.0389,0.0389"
             style="fill:none;stroke:#ff0000;stroke-width:0.00590588;stroke-linecap:square;stroke-linejoin:miter;stroke-miterlimit:4;stroke-dasharray:none;stroke-opacity:0.5" />
          <path
             inkscape:connector-curvature="0"
             id="path5082"
             d="m 14.814169,116.59013 0.0389,0.0389 m 0,-0.0389 -0.0389,0.0389"
             style="fill:none;stroke:#ff0000;stroke-width:0.00590588;stroke-linecap:square;stroke-linejoin:miter;stroke-miterlimit:4;stroke-dasharray:none;stroke-opacity:0.5" />
          <path
             inkscape:connector-curvature="0"
             id="path5084"
             d="m 15.940578,115.94325 0.0389,0.0389 m 0,-0.0389 -0.0389,0.0389"
             style="fill:none;stroke:#ff0000;stroke-width:0.00590588;stroke-linecap:square;stroke-linejoin:miter;stroke-miterlimit:4;stroke-dasharray:none;stroke-opacity:0.5" />
          <path
             inkscape:connector-curvature="0"
             id="path5086"
             d="m 15.963565,115.93005 0.0389,0.0389 m 0,-0.0389 -0.0389,0.0389"
             style="fill:none;stroke:#ff0000;stroke-width:0.00590588;stroke-linecap:square;stroke-linejoin:miter;stroke-miterlimit:4;stroke-dasharray:none;stroke-opacity:0.5" />
          <path
             inkscape:connector-curvature="0"
             id="path5088"
             d="m 15.986553,115.91684 0.0389,0.0389 m 0,-0.0389 -0.0389,0.0389"
             style="fill:none;stroke:#ff0000;stroke-width:0.00590588;stroke-linecap:square;stroke-linejoin:miter;stroke-miterlimit:4;stroke-dasharray:none;stroke-opacity:0.5" />
          <path
             inkscape:connector-curvature="0"
             id="path5090"
             d="m 16.124481,115.83763 0.0389,0.0389 m 0,-0.0389 -0.0389,0.0389"
             style="fill:none;stroke:#ff0000;stroke-width:0.00590588;stroke-linecap:square;stroke-linejoin:miter;stroke-miterlimit:4;stroke-dasharray:none;stroke-opacity:0.5" />
          <g
             transform="matrix(0.00590588,0,0,0.00590588,15.19292,115.92836)"
             id="g5046"
             y="0"
             x="0">
            <rect
               id="rect5042"
               height="16.16"
               width="38.105312"
               y="-10.16"
               x="-16.052656"
               style="fill:#33337f;fill-opacity:0.5;stroke-width:0" />
            <text
               id="text5040"
               y="2"
               x="2"
               style="font-style:normal;font-variant:normal;font-weight:normal;font-stretch:normal;font-size:40px;line-height:1.25;font-family:comfortaa;-inkscape-font-specification:comfortaa;letter-spacing:0px;word-spacing:0px;fill:#000000;fill-opacity:1;stroke:none"
               xml:space="preserve"><tspan
                 y="2"
                 x="2"
                 id="tspan5038"
                 style="font-style:normal;font-weight:normal;font-size:10px;line-height:125%;text-align:center;letter-spacing:0;word-spacing:0;text-anchor:middle;fill:#ffffff;fill-opacity:1;stroke:none"
                 sodipodi:role="line">6.41 px</tspan></text>
          </g>
          <g
             transform="matrix(0.00590588,0,0,0.00590588,14.840364,116.65026)"
             id="g5036"
             y="0"
             x="0">
            <rect
               id="rect5032"
               height="16.16"
               width="38.105312"
               y="-10.16"
               x="-16.052656"
               style="fill:#333333;fill-opacity:0.5;stroke-width:0" />
            <text
               id="text5030"
               y="2"
               x="2"
               style="font-style:normal;font-variant:normal;font-weight:normal;font-stretch:normal;font-size:40px;line-height:1.25;font-family:comfortaa;-inkscape-font-specification:comfortaa;letter-spacing:0px;word-spacing:0px;fill:#000000;fill-opacity:1;stroke:none"
               xml:space="preserve"><tspan
                 y="2"
                 x="2"
                 id="tspan5028"
                 style="font-style:normal;font-weight:normal;font-size:10px;line-height:125%;text-align:center;letter-spacing:0;word-spacing:0;text-anchor:middle;fill:#ffffff;fill-opacity:1;stroke:none"
                 sodipodi:role="line">6.41 px</tspan></text>
          </g>
          <g
             transform="matrix(0.00590588,0,0,0.00590588,16.572316,117.51023)"
             id="g5026"
             y="0"
             x="0">
            <rect
               id="rect5022"
               height="14.02"
               width="44.060623"
               y="-8.0200005"
               x="-19.030313"
               style="fill:#337f33;fill-opacity:0.5;stroke-width:0" />
            <text
               id="text5020"
               y="2"
               x="2"
               style="font-style:normal;font-variant:normal;font-weight:normal;font-stretch:normal;font-size:40px;line-height:1.25;font-family:comfortaa;-inkscape-font-specification:comfortaa;letter-spacing:0px;word-spacing:0px;fill:#000000;fill-opacity:1;stroke:none"
               xml:space="preserve"><tspan
                 y="2"
                 x="2"
                 id="tspan5018"
                 style="font-style:normal;font-weight:normal;font-size:10px;line-height:125%;text-align:center;letter-spacing:0;word-spacing:0;text-anchor:middle;fill:#ffffff;fill-opacity:1;stroke:none"
                 sodipodi:role="line">-150.13 °</tspan></text>
          </g>
          <g
             transform="matrix(0.00590588,0,0,0.00590588,16.06539,116.1427)"
             id="g5016"
             y="0"
             x="0">
            <rect
               id="rect5012"
               height="16.17"
               width="37.142033"
               y="-10.17"
               x="-15.571016"
               style="fill:#000000;fill-opacity:0.5;stroke-width:0" />
            <text
               id="text5010"
               y="2"
               x="2"
               style="font-style:normal;font-variant:normal;font-weight:normal;font-stretch:normal;font-size:40px;line-height:1.25;font-family:comfortaa;-inkscape-font-specification:comfortaa;letter-spacing:0px;word-spacing:0px;fill:#000000;fill-opacity:1;stroke:none"
               xml:space="preserve"><tspan
                 y="2"
                 x="2"
                 id="tspan5008"
                 style="font-style:normal;font-weight:normal;font-size:10px;line-height:125%;text-align:center;letter-spacing:0;word-spacing:0;text-anchor:middle;fill:#ffffff;fill-opacity:1;stroke:none"
                 sodipodi:role="line">0.10 px</tspan></text>
          </g>
          <g
             transform="matrix(0.00590588,0,0,0.00590588,16.164848,116.26265)"
             id="g5006"
             y="0"
             x="0">
            <rect
               id="rect5002"
               height="16.17"
               width="37.142033"
               y="-10.17"
               x="-15.571016"
               style="fill:#000000;fill-opacity:0.5;stroke-width:0" />
            <text
               id="text5000"
               y="2"
               x="2"
               style="font-style:normal;font-variant:normal;font-weight:normal;font-stretch:normal;font-size:40px;line-height:1.25;font-family:comfortaa;-inkscape-font-specification:comfortaa;letter-spacing:0px;word-spacing:0px;fill:#000000;fill-opacity:1;stroke:none"
               xml:space="preserve"><tspan
                 y="2"
                 x="2"
                 id="tspan4998"
                 style="font-style:normal;font-weight:normal;font-size:10px;line-height:125%;text-align:center;letter-spacing:0;word-spacing:0;text-anchor:middle;fill:#ffffff;fill-opacity:1;stroke:none"
                 sodipodi:role="line">0.10 px</tspan></text>
          </g>
          <g
             transform="matrix(0.00590588,0,0,0.00590588,16.360012,116.41618)"
             id="g4996"
             y="0"
             x="0">
            <rect
               id="rect4992"
               height="16.17"
               width="39.13422"
               y="-10.17"
               x="-16.567108"
               style="fill:#000000;fill-opacity:0.5;stroke-width:0" />
            <text
               id="text4990"
               y="2"
               x="2"
               style="font-style:normal;font-variant:normal;font-weight:normal;font-stretch:normal;font-size:40px;line-height:1.25;font-family:comfortaa;-inkscape-font-specification:comfortaa;letter-spacing:0px;word-spacing:0px;fill:#000000;fill-opacity:1;stroke:none"
               xml:space="preserve"><tspan
                 y="2"
                 x="2"
                 id="tspan4988"
                 style="font-style:normal;font-weight:normal;font-size:10px;line-height:125%;text-align:center;letter-spacing:0;word-spacing:0;text-anchor:middle;fill:#ffffff;fill-opacity:1;stroke:none"
                 sodipodi:role="line">0.60 px</tspan></text>
          </g>
          <g
             transform="matrix(0.00590588,0,0,0.00590588,15.491755,116.47271)"
             id="g4986"
             y="0"
             x="0">
            <rect
               id="rect4982"
               height="16.16"
               width="38.029373"
               y="-10.16"
               x="-16.014688"
               style="fill:#000000;fill-opacity:0.5;stroke-width:0" />
            <text
               id="text4980"
               y="2"
               x="2"
               style="font-style:normal;font-variant:normal;font-weight:normal;font-stretch:normal;font-size:40px;line-height:1.25;font-family:comfortaa;-inkscape-font-specification:comfortaa;letter-spacing:0px;word-spacing:0px;fill:#000000;fill-opacity:1;stroke:none"
               xml:space="preserve"><tspan
                 y="2"
                 x="2"
                 id="tspan4978"
                 style="font-style:normal;font-weight:normal;font-size:10px;line-height:125%;text-align:center;letter-spacing:0;word-spacing:0;text-anchor:middle;fill:#ffffff;fill-opacity:1;stroke:none"
                 sodipodi:role="line">4.91 px</tspan></text>
          </g>
          <g
             transform="matrix(0.00590588,0,0,0.00590588,14.847029,116.84239)"
             id="g4976"
             y="0"
             x="0">
            <rect
               id="rect4972"
               height="16.17"
               width="38.958439"
               y="-10.17"
               x="-16.479219"
               style="fill:#000000;fill-opacity:0.5;stroke-width:0" />
            <text
               id="text4970"
               y="2"
               x="2"
               style="font-style:normal;font-variant:normal;font-weight:normal;font-stretch:normal;font-size:40px;line-height:1.25;font-family:comfortaa;-inkscape-font-specification:comfortaa;letter-spacing:0px;word-spacing:0px;fill:#000000;fill-opacity:1;stroke:none"
               xml:space="preserve"><tspan
                 y="2"
                 x="2"
                 id="tspan4968"
                 style="font-style:normal;font-weight:normal;font-size:10px;line-height:125%;text-align:center;letter-spacing:0;word-spacing:0;text-anchor:middle;fill:#ffffff;fill-opacity:1;stroke:none"
                 sodipodi:role="line">0.70 px</tspan></text>
          </g>
        </g>
      </g>
    </g>
    <g
       aria-label="canna"
       style="font-style:normal;font-variant:normal;font-weight:300;font-stretch:normal;font-size:17.35413933px;line-height:1.25;font-family:comfortaa;-inkscape-font-specification:'comfortaa Light';letter-spacing:-0.71437502px;word-spacing:0px;fill:#000000;fill-opacity:1;stroke:none;stroke-width:0.43385351"
       id="text71">
      <path
         d="m -180.07571,90.632857 q -1.33626,0 -2.41222,-0.624749 -1.07596,-0.642103 -1.70071,-1.752768 -0.60739,-1.110665 -0.60739,-2.464288 0,-1.370977 0.57268,-2.464288 0.57269,-1.110664 1.59659,-1.735413 1.02389,-0.642104 2.29074,-0.642104 1.11067,0 2.03044,0.433854 0.91977,0.433853 1.59658,1.284206 0.12148,0.173542 0.12148,0.295021 0,0.242958 -0.24296,0.381791 -0.12148,0.104124 -0.27767,0.104124 -0.24296,0 -0.39914,-0.208249 -1.11067,-1.318915 -2.82873,-1.318915 -1.00654,0 -1.78747,0.50327 -0.78094,0.485916 -1.21479,1.370977 -0.4165,0.885061 -0.4165,1.995726 0,1.093311 0.46856,1.978372 0.46856,0.885061 1.30156,1.388331 0.833,0.50327 1.90895,0.50327 1.52717,0 2.44694,-0.850352 0.15618,-0.156188 0.36443,-0.156188 0.1909,0 0.31238,0.121479 0.17354,0.156187 0.17354,0.381791 0,0.190896 -0.13883,0.312375 -0.6074,0.555332 -1.42304,0.867707 -0.81565,0.29502 -1.73542,0.29502 z"
         style="font-style:normal;font-variant:normal;font-weight:300;font-stretch:normal;font-family:comfortaa;-inkscape-font-specification:'comfortaa Light';letter-spacing:-0.76729167px;fill:#000000;stroke-width:0.43385351"
         id="path3743"
         inkscape:connector-curvature="0" />
      <path
         d="m -170.40014,80.931893 q 1.35362,0 2.46428,0.642103 1.11067,0.624749 1.73542,1.735414 0.6421,1.110665 0.6421,2.481642 v 4.217056 q 0,0.225604 -0.13883,0.381791 -0.13884,0.138833 -0.38179,0.138833 -0.22561,0 -0.3818,-0.138833 -0.13883,-0.156187 -0.13883,-0.381791 v -1.353623 q -0.57269,0.91977 -1.57923,1.457748 -0.98918,0.520624 -2.22132,0.520624 -1.37098,0 -2.48165,-0.624749 -1.11066,-0.642103 -1.75276,-1.752768 -0.62475,-1.110665 -0.62475,-2.464288 0,-1.370977 0.62475,-2.481642 0.6421,-1.110665 1.75276,-1.735414 1.11067,-0.642103 2.48165,-0.642103 z m 0,8.729132 q 1.07595,0 1.94366,-0.50327 0.86771,-0.50327 1.35362,-1.388331 0.50327,-0.885061 0.50327,-1.978372 0,-1.093311 -0.50327,-1.978372 -0.48591,-0.885061 -1.35362,-1.388331 -0.86771,-0.520624 -1.94366,-0.520624 -1.07596,0 -1.94367,0.520624 -0.86771,0.50327 -1.37098,1.388331 -0.50327,0.885061 -0.50327,1.978372 0,1.093311 0.50327,1.978372 0.50327,0.885061 1.37098,1.388331 0.86771,0.50327 1.94367,0.50327 z"
         style="font-style:normal;font-variant:normal;font-weight:300;font-stretch:normal;font-family:comfortaa;-inkscape-font-specification:'comfortaa Light';letter-spacing:-0.76729167px;fill:#000000;stroke-width:0.43385351"
         id="path3745"
         inkscape:connector-curvature="0" />
      <path
         d="m -159.37204,80.914539 q 1.26685,0 2.25603,0.520624 1.00654,0.520624 1.56188,1.527165 0.57268,0.989185 0.57268,2.377517 v 4.668263 q 0,0.225604 -0.15618,0.381791 -0.13884,0.138833 -0.36444,0.138833 -0.2256,0 -0.38179,-0.138833 -0.13884,-0.156187 -0.13884,-0.381791 v -4.668263 q 0,-1.648644 -0.93712,-2.516351 -0.91977,-0.867707 -2.41222,-0.867707 -0.91977,0 -1.68336,0.364437 -0.74622,0.347083 -1.18008,0.989186 -0.43385,0.624749 -0.43385,1.388331 v 5.310367 q 0,0.225604 -0.13883,0.381791 -0.13884,0.138833 -0.38179,0.138833 -0.22561,0 -0.3818,-0.138833 -0.13883,-0.156187 -0.13883,-0.381791 v -8.451466 q 0,-0.242958 0.13883,-0.381791 0.15619,-0.138833 0.3818,-0.138833 0.24295,0 0.38179,0.138833 0.13883,0.138833 0.13883,0.381791 v 0.902416 q 0.59004,-0.728874 1.44039,-1.12802 0.85036,-0.416499 1.8569,-0.416499 z"
         style="font-style:normal;font-variant:normal;font-weight:300;font-stretch:normal;font-family:comfortaa;-inkscape-font-specification:'comfortaa Light';letter-spacing:-0.76729167px;fill:#000000;stroke-width:0.43385351"
         id="path3747"
         inkscape:connector-curvature="0" />
      <path
         d="m -148.44563,80.914539 q 1.26685,0 2.25604,0.520624 1.00654,0.520624 1.56187,1.527165 0.57269,0.989185 0.57269,2.377517 v 4.668263 q 0,0.225604 -0.15619,0.381791 -0.13883,0.138833 -0.36443,0.138833 -0.22561,0 -0.3818,-0.138833 -0.13883,-0.156187 -0.13883,-0.381791 v -4.668263 q 0,-1.648644 -0.93712,-2.516351 -0.91977,-0.867707 -2.41223,-0.867707 -0.91977,0 -1.68335,0.364437 -0.74623,0.347083 -1.18008,0.989186 -0.43385,0.624749 -0.43385,1.388331 v 5.310367 q 0,0.225604 -0.13884,0.381791 -0.13883,0.138833 -0.38179,0.138833 -0.2256,0 -0.38179,-0.138833 -0.13883,-0.156187 -0.13883,-0.381791 v -8.451466 q 0,-0.242958 0.13883,-0.381791 0.15619,-0.138833 0.38179,-0.138833 0.24296,0 0.38179,0.138833 0.13884,0.138833 0.13884,0.381791 v 0.902416 q 0.59004,-0.728874 1.44039,-1.12802 0.85035,-0.416499 1.85689,-0.416499 z"
         style="font-style:normal;font-variant:normal;font-weight:300;font-stretch:normal;font-family:comfortaa;-inkscape-font-specification:'comfortaa Light';letter-spacing:-0.76729167px;fill:#000000;stroke-width:0.43385351"
         id="path3749"
         inkscape:connector-curvature="0" />
      <path
         d="m -137.51921,80.931893 q 1.35362,0 2.46428,0.642103 1.11067,0.624749 1.73542,1.735414 0.6421,1.110665 0.6421,2.481642 v 4.217056 q 0,0.225604 -0.13883,0.381791 -0.13883,0.138833 -0.38179,0.138833 -0.22561,0 -0.38179,-0.138833 -0.13884,-0.156187 -0.13884,-0.381791 v -1.353623 q -0.57268,0.91977 -1.57922,1.457748 -0.98919,0.520624 -2.22133,0.520624 -1.37098,0 -2.48165,-0.624749 -1.11066,-0.642103 -1.75276,-1.752768 -0.62475,-1.110665 -0.62475,-2.464288 0,-1.370977 0.62475,-2.481642 0.6421,-1.110665 1.75276,-1.735414 1.11067,-0.642103 2.48165,-0.642103 z m 0,8.729132 q 1.07595,0 1.94366,-0.50327 0.86771,-0.50327 1.35362,-1.388331 0.50327,-0.885061 0.50327,-1.978372 0,-1.093311 -0.50327,-1.978372 -0.48591,-0.885061 -1.35362,-1.388331 -0.86771,-0.520624 -1.94366,-0.520624 -1.07596,0 -1.94367,0.520624 -0.8677,0.50327 -1.37097,1.388331 -0.50327,0.885061 -0.50327,1.978372 0,1.093311 0.50327,1.978372 0.50327,0.885061 1.37097,1.388331 0.86771,0.50327 1.94367,0.50327 z"
         style="font-style:normal;font-variant:normal;font-weight:300;font-stretch:normal;font-family:comfortaa;-inkscape-font-specification:'comfortaa Light';letter-spacing:-0.76729167px;fill:#000000;stroke-width:0.43385351"
         id="path3751"
         inkscape:connector-curvature="0" />
    </g>
  </g>
</svg>
