<?xml version="1.0" encoding="UTF-8" standalone="no"?>
<!-- Created with Inkscape (http://www.inkscape.org/) -->

<svg
   xmlns:dc="http://purl.org/dc/elements/1.1/"
   xmlns:cc="http://creativecommons.org/ns#"
   xmlns:rdf="http://www.w3.org/1999/02/22-rdf-syntax-ns#"
   xmlns:svg="http://www.w3.org/2000/svg"
   xmlns="http://www.w3.org/2000/svg"
   xmlns:sodipodi="http://sodipodi.sourceforge.net/DTD/sodipodi-0.dtd"
   xmlns:inkscape="http://www.inkscape.org/namespaces/inkscape"
   width="96.913452mm"
   height="13.622853mm"
   viewBox="0 0 96.913452 13.622853"
   version="1.1"
   id="svg4903"
   inkscape:version="0.92.1 r15371"
   sodipodi:docname="cannahome03.svg">
  <defs
     id="defs4897" />
  <sodipodi:namedview
     id="base"
     pagecolor="#ffffff"
     bordercolor="#666666"
     borderopacity="1.0"
     inkscape:pageopacity="0.0"
     inkscape:pageshadow="2"
     inkscape:zoom="0.35"
     inkscape:cx="1271.7147"
     inkscape:cy="168.60112"
     inkscape:document-units="mm"
     inkscape:current-layer="layer1"
     showgrid="false"
     inkscape:window-width="1440"
     inkscape:window-height="803"
     inkscape:window-x="0"
     inkscape:window-y="27"
     inkscape:window-maximized="1" />
  <metadata
     id="metadata4900">
    <rdf:RDF>
      <cc:Work
         rdf:about="">
        <dc:format>image/svg+xml</dc:format>
        <dc:type
           rdf:resource="http://purl.org/dc/dcmitype/StillImage" />
        <dc:title></dc:title>
      </cc:Work>
    </rdf:RDF>
  </metadata>
  <g
     inkscape:label="Layer 1"
     inkscape:groupmode="layer"
     id="layer1"
     transform="translate(230.64119,-179.81953)">
    <path
       style="font-style:normal;font-variant:normal;font-weight:300;font-stretch:normal;font-size:17.35413933px;line-height:1.25;font-family:comfortaa;-inkscape-font-specification:'comfortaa Light';letter-spacing:-0.71437502px;word-spacing:0px;display:inline;fill:#000000;fill-opacity:1;stroke:none;stroke-width:0.43399999;stroke-miterlimit:4;stroke-dasharray:none;stroke-opacity:1;paint-order:markers fill stroke"
       d="m -206.41282,184.07094 c -0.6411,0 -1.22512,0.12996 -1.76165,0.39274 l -0.002,0.002 h -0.002 c -0.53839,0.25272 -0.98975,0.60681 -1.36323,1.06816 l -0.38654,0.47697 v -1.51567 c 0,-0.12064 -0.0266,-0.18061 -0.0744,-0.22841 -0.0478,-0.0478 -0.10777,-0.0744 -0.22841,-0.0744 -0.10253,0 -0.16707,0.0279 -0.23047,0.0822 -0.0449,0.047 -0.0744,0.10404 -0.0744,0.22065 v 8.45117 c 0,0.0999 0.0287,0.16237 0.0801,0.22427 0.0619,0.0514 0.12489,0.0801 0.22479,0.0801 0.11662,0 0.17366,-0.029 0.22066,-0.0739 0.0542,-0.0634 0.0822,-0.12794 0.0822,-0.23047 v -5.31079 c 0,-0.5495 0.16019,-1.05933 0.47232,-1.50946 0.31088,-0.4601 0.73798,-0.81632 1.26607,-1.06247 0.53962,-0.25755 1.13531,-0.38706 1.77715,-0.38706 1.03703,0 1.90477,0.30944 2.56057,0.92811 0.67368,0.62497 1.00563,1.53465 1.00563,2.67374 v 4.66793 c 0,0.10071 0.0278,0.164 0.0801,0.22634 0.0613,0.0503 0.12382,0.0786 0.22272,0.0786 0.10589,0 0.15984,-0.0255 0.21084,-0.0765 0.0671,-0.0672 0.0941,-0.12808 0.0941,-0.22841 v -4.66793 c 0,-0.89572 -0.18545,-1.6462 -0.54518,-2.26756 v -0.002 l -0.002,-0.002 c -0.35104,-0.63634 -0.83587,-1.11085 -1.47068,-1.4392 l -0.002,-0.002 c -0.62568,-0.3293 -1.33905,-0.49403 -2.15388,-0.49403 z m 10.43554,0 c -0.6411,0 -1.22512,0.12996 -1.76165,0.39274 v 0.002 h -0.002 c -0.53839,0.25272 -0.98975,0.60681 -1.36323,1.06816 l -0.38707,0.47697 v -1.51567 c 0,-0.12064 -0.0261,-0.18061 -0.0739,-0.22841 -0.0478,-0.0478 -0.10777,-0.0744 -0.22841,-0.0744 -0.10253,0 -0.16708,0.0279 -0.23048,0.0822 -0.0449,0.047 -0.0744,0.10404 -0.0744,0.22065 v 8.45117 c 0,0.0999 0.0287,0.16237 0.0801,0.22427 0.0619,0.0514 0.12489,0.0801 0.2248,0.0801 0.11662,0 0.17365,-0.029 0.22065,-0.0739 0.0542,-0.0634 0.0816,-0.12794 0.0816,-0.23047 v -5.31079 c 0,-0.55015 0.15998,-1.06101 0.47284,-1.51153 0.31075,-0.45899 0.73835,-0.81467 1.26556,-1.0604 0.53962,-0.25755 1.13376,-0.38706 1.7756,-0.38706 1.03702,0 1.90632,0.30944 2.56212,0.92811 0.67368,0.62497 1.00407,1.53465 1.00407,2.67374 v 4.66793 c 0,0.0999 0.0287,0.16289 0.0801,0.22479 0.0619,0.0514 0.12489,0.0801 0.22479,0.0801 0.10589,0 0.15984,-0.0255 0.21084,-0.0765 0.0672,-0.0672 0.092,-0.12808 0.092,-0.22841 v -4.66793 c 0,-0.89572 -0.18339,-1.6462 -0.54312,-2.26756 l -0.002,-0.002 v -0.002 c -0.3511,-0.63634 -0.838,-1.11085 -1.4728,-1.4392 v -0.002 c -0.62567,-0.3293 -1.3411,-0.49403 -2.15594,-0.49403 z m -20.97495,0.016 c -0.8799,8e-5 -1.66617,0.20478 -2.37298,0.6134 l -0.002,0.002 c -0.7073,0.39786 -1.26057,0.94505 -1.67018,1.65262 -0.3978,0.70719 -0.5979,1.49402 -0.5979,2.37504 0,0.86904 0.19986,1.64987 0.5979,2.35748 0.40962,0.7076 0.9624,1.26228 1.67018,1.67174 h 0.002 c 0.70677,0.39718 1.49316,0.59582 2.3735,0.59582 0.79086,0 1.49213,-0.1663 2.11873,-0.49609 v 0.002 c 0.64077,-0.34248 1.13436,-0.79992 1.49603,-1.38079 l 0.40256,-0.64492 v 2.11149 c 0,0.0999 0.0287,0.1629 0.0801,0.2248 0.0619,0.0514 0.12283,0.0801 0.22273,0.0801 0.11755,0 0.17552,-0.0289 0.22272,-0.0744 0.0542,-0.0634 0.0816,-0.12795 0.0816,-0.23048 v -4.21684 c 0,-0.8801 -0.20418,-1.66603 -0.61288,-2.37298 l -0.002,-0.002 c -0.39805,-0.70771 -0.94487,-1.25453 -1.65258,-1.65262 l -0.002,-0.002 c -0.7072,-0.40886 -1.48697,-0.61331 -2.35486,-0.6134 z m 31.41204,0 c -0.8799,8e-5 -1.66566,0.20478 -2.37247,0.6134 v 0.002 h -0.002 c -0.7073,0.39786 -1.26057,0.94454 -1.67018,1.6521 -0.3978,0.70719 -0.59738,1.49402 -0.59738,2.37505 0,0.86903 0.19934,1.64986 0.59738,2.35748 0.40962,0.70759 0.9624,1.26227 1.67018,1.67173 h 0.002 c 0.70677,0.39718 1.49264,0.59583 2.37298,0.59583 0.79086,0 1.4942,-0.16631 2.1208,-0.4961 0.63951,-0.34233 1.13486,-0.79864 1.49604,-1.37872 l 0.40049,-0.64492 v 2.11149 c 0,0.0999 0.0287,0.1629 0.0801,0.2248 0.0619,0.0514 0.12489,0.0801 0.22479,0.0801 0.11752,0 0.17346,-0.0289 0.22066,-0.0744 0.0542,-0.0634 0.0822,-0.12795 0.0822,-0.23048 v -4.2168 c 0,-0.88011 -0.2047,-1.66603 -0.6134,-2.37298 l -0.002,-0.002 c -0.39809,-0.70771 -0.94493,-1.25453 -1.65263,-1.65262 l -0.002,-0.002 c -0.70722,-0.40887 -1.4875,-0.61331 -2.3554,-0.6134 z m -40.85901,0.0176 c -0.8079,0 -1.52711,0.20259 -2.17558,0.60926 l -0.002,0.002 c -0.64915,0.39609 -1.15042,0.94013 -1.51567,1.64848 v 0.002 h -0.002 c -0.36449,0.69585 -0.54674,1.4794 -0.54674,2.36317 -1e-5,0.8686 0.1939,1.65047 0.57981,2.35748 0.39869,0.70878 0.93429,1.26255 1.61902,1.67173 0.68357,0.39691 1.44774,0.59583 2.30477,0.59583 0.58863,0 1.13804,-0.0942 1.65623,-0.28112 0.52046,-0.19932 0.97129,-0.47299 1.35547,-0.82424 l 0.002,-0.002 0.002,-0.002 c 0.0502,-0.0439 0.0646,-0.0736 0.0646,-0.14831 0,-0.0948 -0.0247,-0.15129 -0.1018,-0.22066 l -0.006,-0.004 -0.004,-0.004 c -0.0408,-0.0408 -0.0769,-0.0589 -0.15813,-0.0589 -0.0846,0 -0.14084,0.024 -0.21084,0.094 l -0.004,0.002 -0.002,0.004 c -0.65714,0.60754 -1.53525,0.90847 -2.59364,0.90847 -0.75114,0 -1.43087,-0.17847 -2.02159,-0.53536 -0.5881,-0.35532 -1.05149,-0.85078 -1.38078,-1.47278 -0.32966,-0.6227 -0.49403,-1.3201 -0.49403,-2.07998 0,-0.76757 0.14463,-1.46604 0.43719,-2.08773 v -0.002 -0.002 c 0.30454,-0.62128 0.73857,-1.11171 1.29294,-1.45728 0.5563,-0.35851 1.19709,-0.53692 1.90428,-0.53692 1.2009,0 2.22024,0.47485 2.9962,1.3963 l 0.004,0.004 0.004,0.004 c 0.0717,0.0956 0.12427,0.12299 0.22427,0.12299 0.0559,0 0.0908,-0.0132 0.13694,-0.0527 l 0.0155,-0.0139 0.0176,-0.01 c 0.11461,-0.0655 0.13281,-0.10363 0.13281,-0.19327 0,-0.008 -0.0182,-0.0727 -0.0801,-0.16382 -0.43154,-0.54055 -0.93137,-0.94538 -1.51155,-1.21905 -0.5827,-0.27486 -1.22722,-0.41393 -1.93941,-0.41393 z m 9.44697,0.52141 c 0.7523,0 1.44225,0.18343 2.05466,0.55087 0.60985,0.35429 1.09059,0.84895 1.43195,1.47071 0.35324,0.62259 0.53123,1.32122 0.53123,2.08205 0,0.7615 -0.17737,1.46059 -0.53123,2.08359 v 0.002 c -0.34178,0.622 -0.8229,1.11501 -1.43351,1.46916 -0.61214,0.35504 -1.30196,0.53278 -2.0531,0.53278 -0.75114,0 -1.44044,-0.17774 -2.05259,-0.53278 -0.61047,-0.35408 -1.0978,-0.8479 -1.45107,-1.46916 -0.35449,-0.62345 -0.53124,-1.32353 -0.53124,-2.0857 0,-0.76217 0.17675,-1.46276 0.53124,-2.08617 0.3528,-0.62043 0.83968,-1.11261 1.44901,-1.46658 0.6124,-0.36744 1.30234,-0.55087 2.05465,-0.55087 z m 31.41204,0 c 0.7523,0 1.44225,0.18343 2.05465,0.55087 0.60904,0.35382 1.09067,0.84806 1.43196,1.46865 l 0.002,0.002 c 0.35308,0.62248 0.52916,1.32138 0.52916,2.08204 0,0.76217 -0.17674,1.46224 -0.53123,2.08566 -0.34174,0.62142 -0.82331,1.11525 -1.43351,1.46916 -0.61214,0.35504 -1.30196,0.53278 -2.0531,0.53278 -0.75114,0 -1.44044,-0.17774 -2.05259,-0.53278 -0.61047,-0.35408 -1.0978,-0.8479 -1.45107,-1.46916 -0.35449,-0.62342 -0.53124,-1.32349 -0.53124,-2.08566 0,-0.76217 0.17675,-1.46276 0.53124,-2.08618 0.35279,-0.62043 0.83967,-1.1126 1.449,-1.46658 0.6124,-0.36744 1.30235,-0.55087 2.05466,-0.55087 z"
       id="text71"
       inkscape:connector-curvature="0" />
    <g
       transform="translate(-183.27104,74.292476)"
       id="g5652"
       style="display:inline">
      <path
         inkscape:connector-curvature="0"
         id="path5393"
         d="m 20.078205,189.46122 0.959114,-3.40651 3.604948,-0.99219 2.711979,1.85209 0.297657,3.57187 -3.901305,-2.06865 -1.426551,0.35079 z"
         style="fill:#6df568;fill-opacity:1;stroke:none;stroke-width:0.26458332px;stroke-linecap:butt;stroke-linejoin:miter;stroke-opacity:1"
         transform="translate(-5.1360622,-74.73757)" />
      <g
         aria-label="home"
         style="font-style:normal;font-variant:normal;font-weight:bold;font-stretch:normal;font-size:17.35369682px;line-height:1.25;font-family:comfortaa;-inkscape-font-specification:'comfortaa Bold';letter-spacing:-0.01735369px;word-spacing:0px;fill:#000000;fill-opacity:1;stroke:none;stroke-width:0.43384242"
         id="text4487-2">
        <path
           d="m 8.7648189,109.50105 q 1.1974051,0 2.1518581,0.52061 0.954454,0.52061 1.492418,1.52713 0.537965,0.98916 0.537965,2.39481 v 4.26901 q 0,0.38178 -0.260306,0.64208 -0.242951,0.24296 -0.624733,0.24296 -0.381781,0 -0.642086,-0.24296 -0.242952,-0.2603 -0.242952,-0.64208 v -4.26901 q 0,-1.40565 -0.763563,-2.11715 -0.7462088,-0.72886 -1.995675,-0.72886 -0.7288553,0 -1.3362346,0.29501 -0.5900257,0.29502 -0.9370997,0.79827 -0.3297202,0.50326 -0.3297202,1.12799 v 4.89375 q 0,0.38178 -0.2429518,0.64208 -0.2429517,0.24296 -0.6420868,0.24296 -0.3817813,0 -0.6420867,-0.24296 -0.2429518,-0.2603 -0.2429518,-0.64208 v -11.80052 q 0,-0.39913 0.2429518,-0.64208 0.2603054,-0.24296 0.6420867,-0.24296 0.3991351,0 0.6420868,0.24296 0.2429518,0.24295 0.2429518,0.64208 v 4.25166 q 0.5553183,-0.55532 1.3188809,-0.85033 0.7635627,-0.31237 1.6312475,-0.31237 z"
           style="font-style:normal;font-variant:normal;font-weight:bold;font-stretch:normal;font-family:comfortaa;-inkscape-font-specification:'comfortaa Bold';letter-spacing:-0.79374999px;fill:#000000;stroke-width:0.43384242"
           id="path4849-2"
           inkscape:connector-curvature="0" />
        <path
           inkscape:connector-curvature="0"
           id="path4851-2"
           transform="matrix(0.26458333,0,0,0.26458333,-6.7342607,-57.317875)"
           d="m 96.953125,630.5625 c -3.498069,0 -6.626133,0.78718 -9.380859,2.36133 -2.754729,1.53041 -4.897328,3.67301 -6.427735,6.42773 -1.530404,2.75472 -2.294922,5.90352 -2.294922,9.44532 0,2.37408 0.361485,4.57183 1.066407,6.60351 l 5.728515,-3.29297 c -8.85e-4,-0.004 -0.0011,-0.008 -0.002,-0.0117 l 8.970703,-5.14062 16.808596,8.95312 0.0273,-0.0508 1.89453,1.00391 c 1.09158,-2.42415 1.64453,-5.10996 1.64453,-8.06445 0,-3.5418 -0.7872,-6.6906 -2.36133,-9.44532 -1.5304,-2.75472 -3.67105,-4.89732 -6.42578,-6.42773 -2.711,-1.57415 -5.7937,-2.36133 -9.248042,-2.36133 z m 0,5.90234 c 2.23002,0 4.217765,0.52479 5.966795,1.57422 1.79276,1.0494 3.17084,2.51431 4.13281,4.39453 1.0057,1.88021 1.50782,4.00209 1.50782,6.36329 0,0.35152 -0.0224,0.69248 -0.0449,1.0332 l -2.58593,-1.38086 v -4.5 h -4.00196 v 2.36523 l -7.380855,-3.9375 -9.207031,5.28125 c 0.138311,-1.90592 0.605438,-3.65441 1.445312,-5.22461 1.005695,-1.88022 2.383778,-3.34513 4.132813,-4.39453 1.792761,-1.04943 3.805139,-1.57422 6.035156,-1.57422 z m -10.484375,18.05469 -5.560547,3.19336 c 0.07961,0.15391 0.152077,0.31123 0.236328,0.46289 1.530407,2.75472 3.673006,4.91805 6.427735,6.49219 2.754726,1.53041 5.88279,2.29687 9.380859,2.29687 3.498065,0 6.601495,-0.76646 9.312495,-2.29687 2.45051,-1.40029 4.41286,-3.2692 5.89454,-5.60352 l -5.65039,-2.99218 c -0.91446,1.40528 -2.10778,2.54651 -3.58985,3.41406 -1.74903,1.0494 -3.736775,1.57422 -5.966795,1.57422 -2.230017,0 -4.242395,-0.52482 -6.035156,-1.57422 -1.749035,-1.04942 -3.127118,-2.49163 -4.132813,-4.32813 -0.112109,-0.2096 -0.216794,-0.4231 -0.316406,-0.63867 z"
           style="font-style:normal;font-variant:normal;font-weight:bold;font-stretch:normal;font-family:comfortaa;-inkscape-font-specification:'comfortaa Bold';letter-spacing:-0.79374999px;fill:#000000;stroke-width:1.63971937" />
        <path
           d="m 35.525671,109.50105 q 1.509771,0 2.429517,0.98916 0.9371,0.98916 0.9371,2.75924 v 4.96316 q 0,0.38178 -0.242952,0.64208 -0.242952,0.24296 -0.642087,0.24296 -0.381781,0 -0.642086,-0.24296 -0.242952,-0.2603 -0.242952,-0.64208 v -4.96316 q 0,-1.05858 -0.537965,-1.59654 -0.520611,-0.55532 -1.405649,-0.55532 -0.902392,0 -1.492418,0.62473 -0.572672,0.62474 -0.572672,1.59654 v 4.89375 q 0,0.38178 -0.242952,0.64208 -0.242952,0.24296 -0.642087,0.24296 -0.381781,0 -0.642086,-0.24296 -0.242952,-0.2603 -0.242952,-0.64208 v -4.96316 q 0,-1.05858 -0.537965,-1.59654 -0.520611,-0.55532 -1.405649,-0.55532 -0.919746,0 -1.509772,0.62473 -0.572672,0.62474 -0.572672,1.59654 v 4.89375 q 0,0.38178 -0.242952,0.64208 -0.242951,0.24296 -0.642086,0.24296 -0.381782,0 -0.642087,-0.24296 -0.242952,-0.2603 -0.242952,-0.64208 v -7.7224 q 0,-0.39913 0.242952,-0.64208 0.260305,-0.24296 0.642087,-0.24296 0.381781,0 0.624733,0.24296 0.242952,0.22559 0.260305,0.60737 0.451196,-0.45119 1.075929,-0.69414 0.624734,-0.26031 1.353589,-0.26031 0.885038,0 1.579186,0.36443 0.711502,0.34707 1.162698,1.00651 0.520611,-0.64208 1.301527,-1.00651 0.780916,-0.36443 1.73537,-0.36443 z"
           style="font-style:normal;font-variant:normal;font-weight:bold;font-stretch:normal;font-family:comfortaa;-inkscape-font-specification:'comfortaa Bold';letter-spacing:-0.79374999px;fill:#000000;stroke-width:0.43384242"
           id="path4853-0"
           inkscape:connector-curvature="0" />
        <path
           d="m 49.543302,114.18655 q 0,0.32972 -0.225598,0.55532 -0.225598,0.20824 -0.572672,0.20824 h -6.594405 q 0.190891,1.21476 1.093283,1.96097 0.919746,0.74621 2.238627,0.74621 0.520611,0 1.075929,-0.19089 0.572672,-0.19089 0.9371,-0.46855 0.242952,-0.19089 0.572672,-0.19089 0.32972,0 0.520611,0.17353 0.312366,0.26031 0.312366,0.59003 0,0.31237 -0.277659,0.52061 -0.590026,0.46855 -1.475064,0.76356 -0.867685,0.29502 -1.665955,0.29502 -1.423003,0 -2.550993,-0.60738 -1.127991,-0.62474 -1.770077,-1.71802 -0.624734,-1.09328 -0.624734,-2.48158 0,-1.38829 0.590026,-2.48158 0.60738,-1.11063 1.665955,-1.71801 1.075929,-0.62474 2.429518,-0.62474 1.336234,0 2.308041,0.59003 0.971807,0.59003 1.492418,1.6486 0.520611,1.05858 0.520611,2.42952 z m -4.32107,-3.17573 q -1.26682,0 -2.06509,0.69415 -0.780917,0.69415 -0.989161,1.85685 h 5.778781 q -0.156183,-1.1627 -0.867685,-1.85685 -0.711501,-0.69415 -1.856845,-0.69415 z"
           style="font-style:normal;font-variant:normal;font-weight:bold;font-stretch:normal;font-family:comfortaa;-inkscape-font-specification:'comfortaa Bold';letter-spacing:-0.79374999px;fill:#000000;stroke-width:0.43384242"
           id="path4855-5"
           inkscape:connector-curvature="0" />
        <g
           sodipodi:insensitive="true"
           style="display:none"
           id="g5124">
          <path
             inkscape:connector-curvature="0"
             id="path5048"
             d="m 16.143929,115.85708 -1.471228,0.84491"
             style="fill:none;stroke:#0000ff;stroke-width:0.00590588;stroke-linecap:square;stroke-linejoin:miter;stroke-miterlimit:4;stroke-dasharray:none;stroke-opacity:0.5" />
          <path
             inkscape:connector-curvature="0"
             id="path5050"
             d="m 14.753159,116.65579 0.102941,0.17925"
             style="fill:none;stroke:#ff0000;stroke-width:0.00590588;stroke-linecap:square;stroke-linejoin:miter;stroke-miterlimit:4;stroke-dasharray:none;stroke-opacity:0.5" />
          <path
             inkscape:connector-curvature="0"
             id="path5052"
             d="m 15.396821,116.28614 0.102941,0.17925"
             style="fill:none;stroke:#ff0000;stroke-width:0.00590588;stroke-linecap:square;stroke-linejoin:miter;stroke-miterlimit:4;stroke-dasharray:none;stroke-opacity:0.5" />
          <path
             inkscape:connector-curvature="0"
             id="path5054"
             d="m 15.97152,115.95609 0.102941,0.17925"
             style="fill:none;stroke:#ff0000;stroke-width:0.00590588;stroke-linecap:square;stroke-linejoin:miter;stroke-miterlimit:4;stroke-dasharray:none;stroke-opacity:0.5" />
          <path
             inkscape:connector-curvature="0"
             id="path5056"
             d="m 15.994508,115.94289 0.102941,0.17925"
             style="fill:none;stroke:#ff0000;stroke-width:0.00590588;stroke-linecap:square;stroke-linejoin:miter;stroke-miterlimit:4;stroke-dasharray:none;stroke-opacity:0.5" />
          <path
             inkscape:connector-curvature="0"
             id="path5058"
             d="m 16.074965,115.89669 0.102941,0.17925"
             style="fill:none;stroke:#ff0000;stroke-width:0.00590588;stroke-linecap:square;stroke-linejoin:miter;stroke-miterlimit:4;stroke-dasharray:none;stroke-opacity:0.5" />
          <path
             inkscape:connector-curvature="0"
             id="path5060"
             d="m 15.97152,115.95609 0.102941,0.17925"
             style="fill:none;stroke:#ff0000;stroke-width:0.00590588;stroke-linecap:square;stroke-linejoin:miter;stroke-miterlimit:4;stroke-dasharray:none;stroke-opacity:0.5" />
          <path
             inkscape:connector-curvature="0"
             id="path5062"
             d="m 15.994508,115.94289 0.179411,0.31241"
             style="fill:none;stroke:#ff0000;stroke-width:0.00590588;stroke-linecap:square;stroke-linejoin:miter;stroke-miterlimit:4;stroke-dasharray:none;stroke-opacity:0.5" />
          <path
             inkscape:connector-curvature="0"
             id="path5064"
             d="m 16.074965,115.89669 0.294118,0.51214"
             style="fill:none;stroke:#ff0000;stroke-width:0.00590588;stroke-linecap:square;stroke-linejoin:miter;stroke-miterlimit:4;stroke-dasharray:none;stroke-opacity:0.5" />
          <path
             inkscape:connector-curvature="0"
             id="path5066"
             d="m 15.396821,116.28614 0.102941,0.17925"
             style="fill:none;stroke:#ff0000;stroke-width:0.00590588;stroke-linecap:square;stroke-linejoin:miter;stroke-miterlimit:4;stroke-dasharray:none;stroke-opacity:0.5" />
          <path
             inkscape:connector-curvature="0"
             id="path5068"
             d="m 14.753159,116.65579 0.102941,0.17925"
             style="fill:none;stroke:#ff0000;stroke-width:0.00590588;stroke-linecap:square;stroke-linejoin:miter;stroke-miterlimit:4;stroke-dasharray:none;stroke-opacity:0.5" />
          <path
             inkscape:connector-curvature="0"
             id="path5070"
             d="m 14.672701,116.70199 -0.205882,-0.3585"
             style="fill:none;stroke:#0000ff;stroke-width:0.00590588;stroke-linecap:square;stroke-linejoin:miter;stroke-miterlimit:4;stroke-dasharray:none;stroke-opacity:0.5" />
          <path
             inkscape:connector-curvature="0"
             id="path5072"
             d="m 16.143929,115.85708 -0.205882,-0.3585"
             style="fill:none;stroke:#0000ff;stroke-width:0.00590588;stroke-linecap:square;stroke-linejoin:miter;stroke-miterlimit:4;stroke-dasharray:none;stroke-opacity:0.5" />
          <path
             inkscape:connector-curvature="0"
             id="path5074"
             d="m 15.938047,115.49858 -1.471228,0.84491"
             style="fill:none;stroke:#0000ff;stroke-width:0.00590588;stroke-linecap:square;stroke-linejoin:miter;stroke-miterlimit:4;stroke-dasharray:none;stroke-opacity:0.5" />
          <path
             inkscape:connector-curvature="0"
             id="path5076"
             d="m 14.672701,116.70199 c 0.865459,1.50701 3.167808,0.89293 3.167808,-0.84491"
             style="fill:none;stroke:#ff0000;stroke-width:0.00590588;stroke-linecap:butt;stroke-linejoin:miter;stroke-miterlimit:4;stroke-dasharray:none;stroke-opacity:0.5" />
          <path
             inkscape:connector-curvature="0"
             id="path5078"
             d="m 16.143929,115.85708 h 1.69658"
             style="fill:none;stroke:#ff0000;stroke-width:0.00590588;stroke-linecap:square;stroke-linejoin:miter;stroke-miterlimit:4;stroke-dasharray:none;stroke-opacity:0.5" />
          <path
             inkscape:connector-curvature="0"
             id="path5080"
             d="m 14.653253,116.68254 0.0389,0.0389 m 0,-0.0389 -0.0389,0.0389"
             style="fill:none;stroke:#ff0000;stroke-width:0.00590588;stroke-linecap:square;stroke-linejoin:miter;stroke-miterlimit:4;stroke-dasharray:none;stroke-opacity:0.5" />
          <path
             inkscape:connector-curvature="0"
             id="path5082"
             d="m 14.814169,116.59013 0.0389,0.0389 m 0,-0.0389 -0.0389,0.0389"
             style="fill:none;stroke:#ff0000;stroke-width:0.00590588;stroke-linecap:square;stroke-linejoin:miter;stroke-miterlimit:4;stroke-dasharray:none;stroke-opacity:0.5" />
          <path
             inkscape:connector-curvature="0"
             id="path5084"
             d="m 15.940578,115.94325 0.0389,0.0389 m 0,-0.0389 -0.0389,0.0389"
             style="fill:none;stroke:#ff0000;stroke-width:0.00590588;stroke-linecap:square;stroke-linejoin:miter;stroke-miterlimit:4;stroke-dasharray:none;stroke-opacity:0.5" />
          <path
             inkscape:connector-curvature="0"
             id="path5086"
             d="m 15.963565,115.93005 0.0389,0.0389 m 0,-0.0389 -0.0389,0.0389"
             style="fill:none;stroke:#ff0000;stroke-width:0.00590588;stroke-linecap:square;stroke-linejoin:miter;stroke-miterlimit:4;stroke-dasharray:none;stroke-opacity:0.5" />
          <path
             inkscape:connector-curvature="0"
             id="path5088"
             d="m 15.986553,115.91684 0.0389,0.0389 m 0,-0.0389 -0.0389,0.0389"
             style="fill:none;stroke:#ff0000;stroke-width:0.00590588;stroke-linecap:square;stroke-linejoin:miter;stroke-miterlimit:4;stroke-dasharray:none;stroke-opacity:0.5" />
          <path
             inkscape:connector-curvature="0"
             id="path5090"
             d="m 16.124481,115.83763 0.0389,0.0389 m 0,-0.0389 -0.0389,0.0389"
             style="fill:none;stroke:#ff0000;stroke-width:0.00590588;stroke-linecap:square;stroke-linejoin:miter;stroke-miterlimit:4;stroke-dasharray:none;stroke-opacity:0.5" />
          <g
             transform="matrix(0.00590588,0,0,0.00590588,15.19292,115.92836)"
             id="g5046"
             y="0"
             x="0">
            <rect
               id="rect5042"
               height="16.16"
               width="38.105312"
               y="-10.16"
               x="-16.052656"
               style="fill:#33337f;fill-opacity:0.5;stroke-width:0" />
            <text
               id="text5040"
               y="2"
               x="2"
               style="font-style:normal;font-variant:normal;font-weight:normal;font-stretch:normal;font-size:40px;line-height:1.25;font-family:comfortaa;-inkscape-font-specification:comfortaa;letter-spacing:0px;word-spacing:0px;fill:#000000;fill-opacity:1;stroke:none"
               xml:space="preserve"><tspan
                 y="2"
                 x="2"
                 id="tspan5038"
                 style="font-style:normal;font-weight:normal;font-size:10px;line-height:125%;text-align:center;letter-spacing:0;word-spacing:0;text-anchor:middle;fill:#ffffff;fill-opacity:1;stroke:none"
                 sodipodi:role="line">6.41 px</tspan></text>
          </g>
          <g
             transform="matrix(0.00590588,0,0,0.00590588,14.840364,116.65026)"
             id="g5036"
             y="0"
             x="0">
            <rect
               id="rect5032"
               height="16.16"
               width="38.105312"
               y="-10.16"
               x="-16.052656"
               style="fill:#333333;fill-opacity:0.5;stroke-width:0" />
            <text
               id="text5030"
               y="2"
               x="2"
               style="font-style:normal;font-variant:normal;font-weight:normal;font-stretch:normal;font-size:40px;line-height:1.25;font-family:comfortaa;-inkscape-font-specification:comfortaa;letter-spacing:0px;word-spacing:0px;fill:#000000;fill-opacity:1;stroke:none"
               xml:space="preserve"><tspan
                 y="2"
                 x="2"
                 id="tspan5028"
                 style="font-style:normal;font-weight:normal;font-size:10px;line-height:125%;text-align:center;letter-spacing:0;word-spacing:0;text-anchor:middle;fill:#ffffff;fill-opacity:1;stroke:none"
                 sodipodi:role="line">6.41 px</tspan></text>
          </g>
          <g
             transform="matrix(0.00590588,0,0,0.00590588,16.572316,117.51023)"
             id="g5026"
             y="0"
             x="0">
            <rect
               id="rect5022"
               height="14.02"
               width="44.060623"
               y="-8.0200005"
               x="-19.030313"
               style="fill:#337f33;fill-opacity:0.5;stroke-width:0" />
            <text
               id="text5020"
               y="2"
               x="2"
               style="font-style:normal;font-variant:normal;font-weight:normal;font-stretch:normal;font-size:40px;line-height:1.25;font-family:comfortaa;-inkscape-font-specification:comfortaa;letter-spacing:0px;word-spacing:0px;fill:#000000;fill-opacity:1;stroke:none"
               xml:space="preserve"><tspan
                 y="2"
                 x="2"
                 id="tspan5018"
                 style="font-style:normal;font-weight:normal;font-size:10px;line-height:125%;text-align:center;letter-spacing:0;word-spacing:0;text-anchor:middle;fill:#ffffff;fill-opacity:1;stroke:none"
                 sodipodi:role="line">-150.13 °</tspan></text>
          </g>
          <g
             transform="matrix(0.00590588,0,0,0.00590588,16.06539,116.1427)"
             id="g5016"
             y="0"
             x="0">
            <rect
               id="rect5012"
               height="16.17"
               width="37.142033"
               y="-10.17"
               x="-15.571016"
               style="fill:#000000;fill-opacity:0.5;stroke-width:0" />
            <text
               id="text5010"
               y="2"
               x="2"
               style="font-style:normal;font-variant:normal;font-weight:normal;font-stretch:normal;font-size:40px;line-height:1.25;font-family:comfortaa;-inkscape-font-specification:comfortaa;letter-spacing:0px;word-spacing:0px;fill:#000000;fill-opacity:1;stroke:none"
               xml:space="preserve"><tspan
                 y="2"
                 x="2"
                 id="tspan5008"
                 style="font-style:normal;font-weight:normal;font-size:10px;line-height:125%;text-align:center;letter-spacing:0;word-spacing:0;text-anchor:middle;fill:#ffffff;fill-opacity:1;stroke:none"
                 sodipodi:role="line">0.10 px</tspan></text>
          </g>
          <g
             transform="matrix(0.00590588,0,0,0.00590588,16.164848,116.26265)"
             id="g5006"
             y="0"
             x="0">
            <rect
               id="rect5002"
               height="16.17"
               width="37.142033"
               y="-10.17"
               x="-15.571016"
               style="fill:#000000;fill-opacity:0.5;stroke-width:0" />
            <text
               id="text5000"
               y="2"
               x="2"
               style="font-style:normal;font-variant:normal;font-weight:normal;font-stretch:normal;font-size:40px;line-height:1.25;font-family:comfortaa;-inkscape-font-specification:comfortaa;letter-spacing:0px;word-spacing:0px;fill:#000000;fill-opacity:1;stroke:none"
               xml:space="preserve"><tspan
                 y="2"
                 x="2"
                 id="tspan4998"
                 style="font-style:normal;font-weight:normal;font-size:10px;line-height:125%;text-align:center;letter-spacing:0;word-spacing:0;text-anchor:middle;fill:#ffffff;fill-opacity:1;stroke:none"
                 sodipodi:role="line">0.10 px</tspan></text>
          </g>
          <g
             transform="matrix(0.00590588,0,0,0.00590588,16.360012,116.41618)"
             id="g4996"
             y="0"
             x="0">
            <rect
               id="rect4992"
               height="16.17"
               width="39.13422"
               y="-10.17"
               x="-16.567108"
               style="fill:#000000;fill-opacity:0.5;stroke-width:0" />
            <text
               id="text4990"
               y="2"
               x="2"
               style="font-style:normal;font-variant:normal;font-weight:normal;font-stretch:normal;font-size:40px;line-height:1.25;font-family:comfortaa;-inkscape-font-specification:comfortaa;letter-spacing:0px;word-spacing:0px;fill:#000000;fill-opacity:1;stroke:none"
               xml:space="preserve"><tspan
                 y="2"
                 x="2"
                 id="tspan4988"
                 style="font-style:normal;font-weight:normal;font-size:10px;line-height:125%;text-align:center;letter-spacing:0;word-spacing:0;text-anchor:middle;fill:#ffffff;fill-opacity:1;stroke:none"
                 sodipodi:role="line">0.60 px</tspan></text>
          </g>
          <g
             transform="matrix(0.00590588,0,0,0.00590588,15.491755,116.47271)"
             id="g4986"
             y="0"
             x="0">
            <rect
               id="rect4982"
               height="16.16"
               width="38.029373"
               y="-10.16"
               x="-16.014688"
               style="fill:#000000;fill-opacity:0.5;stroke-width:0" />
            <text
               id="text4980"
               y="2"
               x="2"
               style="font-style:normal;font-variant:normal;font-weight:normal;font-stretch:normal;font-size:40px;line-height:1.25;font-family:comfortaa;-inkscape-font-specification:comfortaa;letter-spacing:0px;word-spacing:0px;fill:#000000;fill-opacity:1;stroke:none"
               xml:space="preserve"><tspan
                 y="2"
                 x="2"
                 id="tspan4978"
                 style="font-style:normal;font-weight:normal;font-size:10px;line-height:125%;text-align:center;letter-spacing:0;word-spacing:0;text-anchor:middle;fill:#ffffff;fill-opacity:1;stroke:none"
                 sodipodi:role="line">4.91 px</tspan></text>
          </g>
          <g
             transform="matrix(0.00590588,0,0,0.00590588,14.847029,116.84239)"
             id="g4976"
             y="0"
             x="0">
            <rect
               id="rect4972"
               height="16.17"
               width="38.958439"
               y="-10.17"
               x="-16.479219"
               style="fill:#000000;fill-opacity:0.5;stroke-width:0" />
            <text
               id="text4970"
               y="2"
               x="2"
               style="font-style:normal;font-variant:normal;font-weight:normal;font-stretch:normal;font-size:40px;line-height:1.25;font-family:comfortaa;-inkscape-font-specification:comfortaa;letter-spacing:0px;word-spacing:0px;fill:#000000;fill-opacity:1;stroke:none"
               xml:space="preserve"><tspan
                 y="2"
                 x="2"
                 id="tspan4968"
                 style="font-style:normal;font-weight:normal;font-size:10px;line-height:125%;text-align:center;letter-spacing:0;word-spacing:0;text-anchor:middle;fill:#ffffff;fill-opacity:1;stroke:none"
                 sodipodi:role="line">0.70 px</tspan></text>
          </g>
        </g>
      </g>
    </g>
  </g>
</svg>
