<?xml version="1.0" encoding="utf-8"?>
<!-- Generator: Adobe Illustrator 21.0.2, SVG Export Plug-In . SVG Version: 6.00 Build 0)  -->
<svg version="1.1" id="Layer_1" xmlns="http://www.w3.org/2000/svg" xmlns:xlink="http://www.w3.org/1999/xlink" x="0px" y="0px"
	 width="40px" height="40px" viewBox="0 0 40 40" enable-background="new 0 0 40 40" xml:space="preserve">
<g>
	<path fill="#4C5254" d="M35.38,11.42h-2.29C31.74,4.91,25.96,0,19.05,0C12.15,0,6.36,4.91,5.01,11.42H4.62
		c-1.14,0-2.06,0.93-2.06,2.06v1.78v21.7v0.98c0,1.14,0.92,2.06,2.06,2.06h27.46c1.13,0,2.06-0.92,2.06-2.06v-0.39h1.24
		c1.14,0,2.06-0.92,2.06-2.05v-5.81v-7.16v-9.05C37.44,12.35,36.52,11.42,35.38,11.42z M36.26,35.5c0,0.48-0.39,0.88-0.88,0.88
		h-1.24v-5.27l2.12-0.63V35.5z M32.96,37.94c0,0.49-0.4,0.88-0.88,0.88H4.62c-0.49,0-0.88-0.39-0.88-0.88v-0.98V15.85h1.05h0.59h0.6
		h7.44h1.18h2.97h4.42h3.68h1.2h5.25c0.22,0.01,0.42,0.1,0.57,0.24c0.17,0.16,0.27,0.39,0.27,0.63v1.11v5.03l-2.23-0.2l-0.69-0.06
		l-0.7-0.07l-6.53-0.59h-0.06c-0.41,0-0.8,0.06-1.17,0.17c-0.42,0.12-0.82,0.31-1.18,0.55c-0.37,0.26-0.69,0.58-0.97,0.94
		c-0.26,0.35-0.48,0.75-0.62,1.18c-0.14,0.42-0.22,0.86-0.22,1.33c0,0.48,0.08,0.95,0.24,1.38c0.06,0.21,0.15,0.41,0.26,0.6
		c0.11,0.2,0.24,0.4,0.38,0.58c0.76,0.97,1.94,1.6,3.26,1.61l10.23,0.92v5.76V37.94z M3.74,13.48c0-0.48,0.39-0.88,0.88-0.88h0.2
		c-0.07,0.57-0.11,1.15-0.11,1.74c0,0.11,0,0.22,0.01,0.33H3.74V13.48z M6.22,11.42C7.55,5.56,12.8,1.18,19.05,1.18
		c6.26,0,11.5,4.38,12.83,10.24c0.05,0.19,0.09,0.39,0.12,0.59c0.04,0.19,0.07,0.39,0.09,0.59c0.08,0.57,0.12,1.15,0.12,1.74
		c0,0.11,0,0.23-0.01,0.34c-0.04-0.01-0.08-0.01-0.12-0.01h-5.55c-0.26-0.55-0.65-1.01-1.16-1.38c0.13-0.22,0.25-0.45,0.33-0.69
		c0.07-0.19,0.12-0.38,0.16-0.59c0.03-0.16,0.06-0.33,0.07-0.51v-0.08c0.11-1.8-0.72-3.22-2.34-4.02c-0.61-0.3-1.25-0.46-1.83-0.56
		V5.3c0-0.16,0-0.64-0.39-1.03c-0.18-0.18-0.49-0.39-0.98-0.39h-0.08c-0.19,0.01-0.4,0.01-0.6,0.01c-0.19,0-0.38,0-0.57-0.01h-0.06
		c-0.43,0-0.72,0.16-0.91,0.31c-0.19-0.15-0.49-0.3-0.92-0.3h-0.12C17,3.9,16.86,3.9,16.7,3.9c-0.2,0-0.39,0-0.58-0.01h-0.07
		c-0.43,0-0.78,0.14-1.05,0.41c-0.27,0.28-0.4,0.65-0.39,1.09c0.02,0.4,0.01,0.79,0.01,1.21v0.11h-0.79c-0.31,0-0.62,0.01-0.93,0.01
		h-0.31c-0.43,0-0.78,0.13-1.04,0.4c-0.18,0.18-0.39,0.51-0.37,1.03c0.01,0.38,0.01,0.79,0,1.32c-0.01,0.52,0.2,0.85,0.38,1.03
		s0.49,0.4,1,0.4h0.06c0.15-0.01,0.29-0.01,0.43-0.01c0.13,0,0.24,0,0.36,0.01v0.52v0.59c0,0.2,0.01,0.39,0,0.59
		c0.01,0.69,0.01,1.38,0.01,2.07H5.9c-0.01-0.11-0.01-0.22-0.01-0.33c0-0.59,0.04-1.17,0.12-1.74c0.02-0.2,0.05-0.4,0.09-0.59
		C6.13,11.81,6.17,11.61,6.22,11.42z M35.38,12.6c0.49,0,0.88,0.4,0.88,0.88v8.61l-2.12,0.63v-6c0-0.64-0.3-1.21-0.77-1.59
		c0.01-0.26,0.02-0.53,0.02-0.79c0-0.59-0.04-1.17-0.11-1.74H35.38z M14.59,12.6c0.01-0.2,0.01-0.39,0-0.59v-0.59v-0.76
		c0-0.56-0.31-0.89-0.87-0.93c-0.22-0.01-0.44-0.02-0.67-0.02c-0.15,0-0.31,0.01-0.47,0.01c0,0-0.01,0-0.02,0
		c-0.16,0-0.21-0.06-0.21-0.22c0.01-0.46,0.02-0.93,0-1.39c0-0.19,0.07-0.22,0.23-0.22h2.95c0.22,0,0.28-0.06,0.28-0.29
		c-0.02-0.75,0-1.5-0.02-2.25c-0.01-0.23,0.07-0.28,0.26-0.28h0.04c0.2,0,0.4,0.01,0.61,0.01c0.16,0,0.33,0,0.5-0.01h0.05
		c0.2,0,0.26,0.07,0.26,0.3C17.5,6.1,17.52,6.83,17.5,7.56c0,0.21,0.06,0.27,0.22,0.27c0.02,0,0.04,0,0.06-0.01
		c0.2-0.01,0.39-0.02,0.58-0.02c0.1,0,0.19,0,0.29,0.01h0.03c0.17,0,0.2-0.08,0.2-0.25c-0.02-0.75-0.01-1.5-0.02-2.25
		c0-0.17,0.04-0.25,0.22-0.25c0,0,0.01,0,0.02,0c0.2,0.01,0.41,0.01,0.61,0.01c0.22,0,0.44,0,0.65-0.01h0.03
		c0.17,0,0.19,0.08,0.19,0.23c0,0.78,0.01,1.55,0,2.32c0,0.2,0.05,0.28,0.26,0.3c0.77,0.07,1.53,0.21,2.24,0.55
		c1.22,0.6,1.77,1.59,1.67,2.96c-0.01,0.21-0.05,0.4-0.11,0.59c-0.05,0.21-0.13,0.41-0.24,0.59c-0.24,0.41-0.61,0.75-1.11,1.03
		c0.45,0.14,0.82,0.26,1.16,0.46c0.27,0.16,0.5,0.36,0.68,0.58H14.6C14.6,13.98,14.6,13.29,14.59,12.6z M33.55,30.05l-0.06,0.02
		L22.81,29.1h-0.06c-0.64,0-1.24-0.21-1.73-0.56c-0.21-0.14-0.4-0.32-0.56-0.52c-0.15-0.18-0.28-0.37-0.38-0.57
		c-0.2-0.4-0.32-0.86-0.32-1.34c0-0.47,0.11-0.92,0.31-1.32c0.31-0.64,0.86-1.16,1.52-1.43c0.35-0.16,0.74-0.24,1.14-0.24l5.63,0.51
		l0.76,0.07l0.72,0.07l3.59,0.32l0.06,0.01h0.06c0.01,0,0.01,0,0.02,0h0.01c0.04,0,0.07,0,0.11-0.02h0.03l2.54-0.76v5.93
		L33.55,30.05z"/>
	<path fill="#4C5254" d="M20.24,10.01c-0.57-0.16-1.15-0.19-1.74-0.19c-0.26,0-0.52,0-0.78,0.01c-0.13,0-0.17,0.06-0.17,0.19
		c0,0.47,0.01,0.93,0,1.4c0.01,0.2,0.01,0.39,0.01,0.59v0.59v0.44c0,0.13,0.02,0.21,0.18,0.21h0.01c0.75,0,1.5,0.01,2.24-0.15
		c0.17-0.06,0.34-0.1,0.5-0.16c0.23-0.08,0.42-0.19,0.58-0.34c0.19-0.16,0.33-0.36,0.4-0.59c0.07-0.18,0.09-0.38,0.07-0.59
		c0-0.08-0.01-0.16-0.03-0.25C21.35,10.49,20.85,10.18,20.24,10.01z M20.09,11.83c-0.08,0.03-0.17,0.06-0.27,0.09
		c-0.04,0.01-0.09,0.02-0.13,0.03c-0.11,0.03-0.22,0.05-0.34,0.06c-0.2,0.03-0.4,0.04-0.61,0.05v-0.05v-0.59V11
		c0.39,0,0.79,0.03,1.18,0.14c0.38,0.12,0.42,0.2,0.44,0.28v0.01C20.39,11.54,20.43,11.71,20.09,11.83z"/>
	<path fill="#4C5254" d="M22.67,24.98c-0.61,0-1.11,0.5-1.11,1.11c0,0.45,0.28,0.85,0.67,1.02h0.01c0.13,0.06,0.28,0.09,0.43,0.09
		c0.4,0,0.74-0.2,0.93-0.51c0.12-0.17,0.18-0.38,0.18-0.6C23.78,25.48,23.29,24.98,22.67,24.98z"/>
</g>
</svg>
