<?xml version="1.0" encoding="utf-8"?>
<!-- Generator: Adobe Illustrator 21.0.2, SVG Export Plug-In . SVG Version: 6.00 Build 0)  -->
<svg version="1.1" id="Layer_1" xmlns="http://www.w3.org/2000/svg" xmlns:xlink="http://www.w3.org/1999/xlink" x="0px" y="0px"
	 width="40px" height="40px" viewBox="0 0 40 40" style="enable-background:new 0 0 40 40;" xml:space="preserve">
<style type="text/css">
	.st0{fill:#4C5254;}
</style>
<g>
	<path class="st0" d="M28.614,22.0072c0,0.314,0.0912,0.6091,0.2523,0.856c0.1342,0.212,0.3193,0.3918,0.5367,0.5179v-0.0414
		c0.2363,0.1437,0.5108,0.231,0.8076,0.231c0.8631,0,1.5628-0.6997,1.5628-1.5628s-0.6997-1.5628-1.5628-1.5628
		c-0.2968,0-0.5713,0.0873-0.8076,0.231v-0.043c-0.2173,0.1261-0.4025,0.3059-0.5367,0.5179
		C28.7052,21.3981,28.614,21.6933,28.614,22.0072z"/>
	<path class="st0" d="M39.0232,8.8233h-9.6203V6.2471c0-0.2979-0.2388-0.5367-0.5367-0.5367h-9.2366V0.5367
		C19.6297,0.2416,19.3882,0,19.093,0H0.9768C0.6816,0,0.4401,0.2416,0.4401,0.5367V30.64c0,0.2952,0.2415,0.5367,0.5367,0.5367
		h9.2365v5.1737c0,0.2952,0.2416,0.5367,0.5367,0.5367h9.6202v2.5761c0,0.2952,0.2416,0.5367,0.5367,0.5367h18.1162
		c0.2979,0,0.5367-0.2416,0.5367-0.5367V9.36C39.5599,9.0648,39.321,8.8233,39.0232,8.8233z M29.4029,17.4265
		c0.263-0.0456,0.5314-0.0698,0.8077-0.0698c2.5949,0,4.7041,2.1119,4.7041,4.7068c0,2.0368-3.0645,7.4332-4.7041,10.0952
		c-0.2442-0.3945-0.5179-0.848-0.8077-1.3417c-0.1744-0.2952-0.3542-0.6064-0.5367-0.9285
		c-0.1771-0.3086-0.3569-0.6279-0.5367-0.9527c-1.4169-2.5681-2.823-5.4931-2.823-6.8724c0-1.9268,1.162-3.5878,2.823-4.3124
		c0.1718-0.0778,0.3516-0.1449,0.5367-0.1986C29.0406,17.5017,29.2205,17.4587,29.4029,17.4265z M20.907,8.8233
		c-0.2952,0-0.5367,0.2415-0.5367,0.5367v26.4538h-9.0836v-4.6371V30.64v-0.5367V16.6107c0.0805,0.0483,0.1717,0.0698,0.2603,0.0698
		c0.1825,0,0.3596-0.094,0.4616-0.263c0.1503-0.2523,0.0671-0.5823-0.1878-0.7353c-0.1744-0.1047-0.3515-0.2013-0.534-0.2872V6.7839
		h7.2696h0.5367h0.5367h8.6998v2.0395H20.907z M1.5135,1.0734h17.0428v4.6371H10.75c-0.2952,0-0.5367,0.2388-0.5367,0.5367v8.7106
		c-0.5528-0.1798-1.1512-0.314-1.8167-0.4079c-0.2898-0.0403-0.5635,0.161-0.6064,0.4562
		c-0.0403,0.2925,0.1637,0.5635,0.4562,0.6065c0.738,0.1046,1.3847,0.263,1.967,0.4857v14.0051H1.5135V1.0734z M38.4865,38.9266
		H21.4437v-2.0394v-0.5367v-0.5367v-4.943c0.7379,0.5448,1.5322,1.0224,2.3668,1.425c0.0751,0.0349,0.1529,0.0537,0.2335,0.0537
		c0.1986,0,0.3891-0.1127,0.4831-0.3059c0.1288-0.2657,0.0161-0.5877-0.2496-0.7165c-0.9982-0.4804-1.9294-1.0734-2.772-1.7657
		c-0.0188-0.0161-0.0403-0.0323-0.0617-0.043V9.8967h6.8858V16.6c-2.2649,0.7809-3.8964,2.933-3.8964,5.4636
		c0,2.0314,2.3186,6.3464,3.8964,9.046c0.1932,0.3301,0.373,0.6333,0.5367,0.907c0.2093,0.3462,0.3918,0.644,0.5367,0.8775
		c0.1959,0.3167,0.322,0.5179,0.3542,0.5662c0.0993,0.153,0.2711,0.2469,0.4535,0.2469c0.1825,0,0.3542-0.0939,0.4508-0.2469
		c0.22-0.3408,5.3267-8.3805,5.3267-11.3967c0-3.188-2.5922-5.7802-5.7775-5.7802c-0.2737,0-0.5447,0.0188-0.8077,0.0591V9.8967
		h9.0836V38.9266z"/>
	<path class="st0" d="M28.8823,32.6338c0,0-0.0054,0-0.0161,0c-0.0564-0.0027-0.2442-0.0161-0.5367-0.0563
		c-0.2469-0.0349-0.5689-0.0886-0.9446-0.1717c-0.2898-0.0644-0.5769,0.1181-0.6387,0.4079
		c-0.0644,0.2898,0.1181,0.5769,0.4079,0.6413c0.4831,0.1073,0.8882,0.1663,1.1754,0.2039
		c0.3113,0.0376,0.4938,0.0456,0.5072,0.0483h0.0241c0.0027,0,0.0027,0,0.0054,0c0.2818-0.0027,0.5179-0.2281,0.5286-0.5125
		C29.4083,32.8968,29.1775,32.6473,28.8823,32.6338z"/>
	<path class="st0" d="M14.4559,18.143c-0.1771-0.2388-0.5125-0.2872-0.7487-0.11c-0.2389,0.1771-0.2872,0.5125-0.11,0.7514
		c0.5796,0.7809,1.1271,1.7174,1.6637,2.8552c0.0913,0.1959,0.2845,0.3086,0.4857,0.3086c0.0778,0,0.1557-0.0161,0.2281-0.051
		c0.2684-0.1261,0.3837-0.4454,0.2576-0.7138C15.6635,19.9785,15.0839,18.983,14.4559,18.143z"/>
	<path class="st0" d="M19.093,26.9824c-0.1878-0.2576-0.3676-0.5233-0.5367-0.797c-0.365-0.5823-0.6977-1.1995-0.9902-1.8462
		c-0.1234-0.2711-0.4427-0.3891-0.7111-0.2657c-0.271,0.1234-0.3891,0.4401-0.2657,0.7111
		c0.4991,1.1002,1.1029,2.1226,1.7899,3.0431c0.0483,0.0644,0.11,0.1154,0.1771,0.1502c0.0778,0.043,0.1664,0.0644,0.2523,0.0644
		c0.0993,0,0.1959-0.0268,0.2845-0.0832c0.0134-0.0054,0.0241-0.0161,0.0376-0.0242c0.2388-0.1798,0.2871-0.5153,0.1073-0.7514
		C19.1869,27.1166,19.1386,27.0495,19.093,26.9824z"/>
	<path class="st0" d="M4.9,14.3244l-0.1234-0.0054c-0.4777-0.0108-0.9688-0.0242-1.4786-0.0457
		c-0.3059-0.008-0.5474,0.22-0.5581,0.5153c-0.0108,0.2952,0.22,0.5447,0.5152,0.5582c0.5152,0.0188,1.0117,0.0322,1.4947,0.0456
		l0.1208,0.0027c0.0054,0.0027,0.0107,0.0027,0.0161,0.0027c0.2898,0,0.526-0.2308,0.534-0.5233
		C5.4287,14.5794,5.1952,14.3325,4.9,14.3244z"/>
</g>
</svg>
