<?xml version="1.0" encoding="utf-8"?>
<!-- Generator: Adobe Illustrator 21.0.2, SVG Export Plug-In . SVG Version: 6.00 Build 0)  -->
<svg version="1.1" id="Layer_1" xmlns="http://www.w3.org/2000/svg" xmlns:xlink="http://www.w3.org/1999/xlink" x="0px" y="0px"
	 width="40px" height="40px" viewBox="0 0 40 40" enable-background="new 0 0 40 40" xml:space="preserve">
<path fill="#4C5254" d="M39.216,21.311c-0.492-0.804-1.216-1.487-2.11-1.939L31.6,16.589c0.111-0.181,0.201-0.372,0.291-0.563
	c0.02-0.04,0.04-0.09,0.07-0.141c0.09-0.211,0.181-0.432,0.261-0.653c0.161-0.211,0.502-0.683,0.834-1.186
	c0.342-0.512,0.663-1.045,0.774-1.397c0.02-0.07,0.04-0.151,0.07-0.221c0.221-0.663,0.533-1.557-0.342-3.115
	c0.06-0.713,0.131-3.175-1.467-5.014c-1.176-1.356-2.974-2.04-5.325-2.04h-0.442c-2.351,0-4.15,0.683-5.325,2.04
	c-0.683,0.784-1.065,1.678-1.266,2.512c-1.115-0.543-2.462-0.804-4.029-0.804h-0.502c-2.693,0-4.743,0.784-6.089,2.321
	c-1.849,2.13-1.748,4.984-1.678,5.757c-1.005,1.778-0.653,2.803-0.392,3.567c0.03,0.08,0.06,0.161,0.08,0.241
	c0.251,0.814,1.537,2.552,1.849,2.964c0.151,0.412,0.312,0.794,0.492,1.156c0.08,0.151,0.151,0.301,0.231,0.442
	c0.01,0.02,0.02,0.03,0.03,0.05l-6.431,3.255c-0.995,0.502-1.819,1.266-2.401,2.211l-0.211,0.362C0.241,29.189,0,30.153,0,31.128
	v1.467c0,0.181,0.09,0.352,0.241,0.452c4.491,3.075,9.746,4.692,15.212,4.692c5.456,0,10.711-1.618,15.212-4.692
	c0.141-0.101,0.231-0.271,0.231-0.452v-1.477c0-0.553-0.07-1.085-0.221-1.598c3.245-0.573,6.33-1.829,9.083-3.708
	C39.91,25.712,40,25.541,40,25.36v-1.286C40,23.08,39.719,22.135,39.216,21.311z M38.905,25.069
	c-2.622,1.738-5.546,2.894-8.611,3.416c-0.08-0.181-0.181-0.352-0.281-0.512c-0.563-0.924-1.387-1.698-2.401-2.211l-6.441-3.255
	c0.01-0.02,0.02-0.03,0.03-0.05c0.08-0.141,0.161-0.291,0.231-0.442c0.09-0.181,0.181-0.372,0.261-0.563
	c0.09-0.191,0.171-0.392,0.241-0.593c0.151-0.211,0.553-0.744,0.934-1.336c0.181-0.261,0.352-0.533,0.502-0.794
	c1.316,0.924,2.622,1.015,3.055,1.015h0.121c0.342,0.02,2.663,0.03,4.441-2.231l5.627,2.833c1.417,0.723,2.291,2.15,2.291,3.728
	V25.069z M29.812,31.118v1.186c-4.27,2.844-9.224,4.351-14.358,4.351c-5.144,0-10.108-1.507-14.358-4.351v-1.176
	c0-0.794,0.191-1.588,0.563-2.291c0.05-0.09,0.1-0.191,0.161-0.291c0.482-0.774,1.155-1.397,1.969-1.809l6.561-3.306
	c0.884,1.145,1.899,1.799,2.793,2.15c0.543,0.221,1.045,0.342,1.437,0.392c0.322,0.05,0.573,0.06,0.733,0.06h0.141
	c0.05,0,0.161,0,0.301-0.01c0.854-0.03,3.075-0.342,4.803-2.602l6.551,3.316c0.874,0.442,1.567,1.105,2.04,1.909
	c0.09,0.161,0.181,0.342,0.261,0.512c0.07,0.171,0.131,0.352,0.181,0.532C29.741,30.143,29.812,30.625,29.812,31.118z M8.078,17.292
	c-0.241-0.703-0.472-1.356,0.392-2.803c0.06-0.111,0.09-0.231,0.07-0.362c-0.01-0.02-0.221-1.668,0.392-3.346
	c0.03-0.1,0.07-0.201,0.121-0.301v-0.01c0.131-0.291,0.281-0.583,0.462-0.864c0.121-0.191,0.261-0.372,0.422-0.553
	c0.141-0.161,0.291-0.311,0.452-0.452c0.1-0.09,0.191-0.171,0.291-0.231c0.141-0.121,0.291-0.221,0.442-0.291
	c0.241-0.171,0.502-0.301,0.784-0.412c0.924-0.382,2.02-0.573,3.296-0.573h0.502c1.537,0,2.823,0.281,3.848,0.844
	c0.181,0.09,0.362,0.201,0.522,0.322c0.191,0.121,0.362,0.261,0.523,0.422c0.131,0.111,0.251,0.231,0.362,0.362
	c1.789,2.04,1.407,5.054,1.397,5.084c-0.01,0.131,0.01,0.251,0.08,0.362c0.673,1.135,0.683,1.789,0.533,2.361
	c-0.04,0.151-0.09,0.291-0.141,0.442c-0.02,0.05-0.04,0.111-0.05,0.161h-0.01c-0.01,0.03-0.02,0.07-0.03,0.11
	c-0.04,0.111-0.111,0.261-0.201,0.442c-0.362,0.653-1.065,1.658-1.527,2.261c-0.04,0.05-0.06,0.1-0.08,0.151
	c-0.271,0.754-0.603,1.437-0.985,2.01c-1.809,2.643-4.351,2.522-4.451,2.512h-0.08c-0.01,0-0.512,0.03-1.226-0.161
	c-0.171-0.04-0.362-0.101-0.553-0.171c-0.171-0.07-0.362-0.151-0.543-0.251c-0.703-0.362-1.467-0.965-2.13-1.929
	c-0.392-0.573-0.723-1.256-0.985-2.01c-0.02-0.05-0.05-0.1-0.08-0.151c-0.583-0.764-1.567-2.18-1.728-2.703
	C8.139,17.473,8.109,17.383,8.078,17.292z M26.325,3.346h0.442c2.02,0,3.537,0.563,4.491,1.658c1.527,1.748,1.206,4.331,1.196,4.351
	c-0.01,0.121,0.01,0.251,0.07,0.352c0.733,1.226,0.543,1.778,0.342,2.371c-0.03,0.08-0.06,0.161-0.08,0.241
	c-0.141,0.442-0.985,1.658-1.487,2.321c-0.03,0.04-0.06,0.09-0.08,0.151c-0.231,0.643-0.512,1.226-0.844,1.718
	c-1.537,2.251-3.698,2.15-3.788,2.15c-0.02-0.01-0.03-0.01-0.04-0.01s-0.03,0-0.04,0.01c-0.02,0-1.346,0.08-2.673-0.934
	c0.01-0.03,0.02-0.05,0.03-0.08c0.251-0.754,0.603-1.779-0.402-3.557c0.07-0.774,0.181-3.627-1.668-5.757
	c-0.311-0.362-0.673-0.683-1.065-0.955c0.151-0.774,0.462-1.648,1.095-2.371C22.788,3.909,24.305,3.346,26.325,3.346z"/>
</svg>
