<?xml version="1.0" encoding="utf-8"?>
<!-- Generator: Adobe Illustrator 21.0.2, SVG Export Plug-In . SVG Version: 6.00 Build 0)  -->
<svg version="1.1" id="Layer_1" xmlns="http://www.w3.org/2000/svg" xmlns:xlink="http://www.w3.org/1999/xlink" x="0px" y="0px"
	 width="40px" height="40px" viewBox="0 0 40 40" enable-background="new 0 0 40 40" xml:space="preserve">
<g>
	<path fill="#4C5254" d="M38.238,12.246h0.696c0.304,0,0.548-0.244,0.548-0.548V6.675c0-0.301-0.244-0.548-0.548-0.548H34.47V1.663
		c0-0.304-0.247-0.548-0.548-0.548h-5.023c-0.304,0-0.548,0.244-0.548,0.548v4.464h-4.467c-0.301,0-0.548,0.247-0.548,0.548v4.083
		H5.535C2.483,10.758,0,13.241,0,16.291v4.426v17.62c0,0.304,0.247,0.548,0.548,0.548h38.904c0.304,0,0.548-0.244,0.548-0.548
		v-17.62v-4.426C40,14.696,39.32,13.258,38.238,12.246z M1.096,16.291c0-2.447,1.992-4.437,4.439-4.437h17.823
		c0.069,0.227,0.28,0.392,0.526,0.392h4.467v4.467c0,0.301,0.244,0.548,0.548,0.548h5.023c0.301,0,0.548-0.247,0.548-0.548v-4.467
		h1.814c1.546,0.693,2.62,2.244,2.62,4.045v3.878H25.937v-2.866c0-0.301-0.247-0.548-0.548-0.548H14.611
		c-0.301,0-0.548,0.247-0.548,0.548v2.866H1.096V16.291z M28.899,11.15h-4.467v-0.392V7.223h4.467c0.301,0,0.548-0.244,0.548-0.548
		V2.211h3.927v4.464c0,0.304,0.247,0.548,0.548,0.548h4.464v3.927h-1.88h-2.584c-0.148,0-0.282,0.06-0.381,0.156
		c-0.104,0.099-0.167,0.238-0.167,0.392v0.156v4.31h-3.927v-4.31v-0.156c0-0.153-0.063-0.293-0.167-0.392
		C29.181,11.211,29.047,11.15,28.899,11.15z M24.841,20.169v0.548v0.014c0,0.181-0.011,0.359-0.03,0.534
		c-0.118,1.077-0.592,2.05-1.299,2.795c-0.189,0.2-0.395,0.381-0.614,0.548c-0.288,0.216-0.6,0.4-0.934,0.548
		c-0.6,0.269-1.263,0.417-1.962,0.417c-0.699,0-1.362-0.148-1.962-0.417c-0.334-0.148-0.647-0.332-0.937-0.548
		c-0.219-0.167-0.425-0.348-0.614-0.548c-0.707-0.745-1.181-1.718-1.299-2.795c-0.019-0.175-0.03-0.353-0.03-0.534v-0.014v-0.548
		V17.85h9.681V20.169z M20.001,26.669c1.518,0,2.905-0.573,3.954-1.513h11.06V33.9H4.987v-8.744h11.057
		C17.097,26.096,18.483,26.669,20.001,26.669z M38.904,37.789H1.096V21.265h12.992c0.09,1.028,0.447,1.984,0.997,2.795H4.439
		c-0.304,0-0.548,0.244-0.548,0.548v9.84c0,0.301,0.244,0.548,0.548,0.548h31.124c0.301,0,0.548-0.247,0.548-0.548v-9.84
		c0-0.304-0.247-0.548-0.548-0.548H24.915c0.551-0.811,0.907-1.768,0.997-2.795h12.992V37.789z"/>
	<path fill="#4C5254" d="M20.001,23.002c0.885,0,1.603-0.718,1.603-1.603c0-0.047-0.003-0.09-0.005-0.134
		c-0.016-0.195-0.066-0.378-0.148-0.548c-0.096-0.211-0.241-0.4-0.419-0.548c-0.28-0.236-0.638-0.375-1.03-0.375
		s-0.754,0.14-1.033,0.375c-0.178,0.148-0.321,0.337-0.422,0.548c-0.079,0.17-0.129,0.354-0.145,0.548
		c-0.003,0.044-0.005,0.088-0.005,0.134C18.396,22.284,19.114,23.002,20.001,23.002z"/>
</g>
</svg>
