<?xml version="1.0" encoding="utf-8"?>
<!-- Generator: Adobe Illustrator 21.0.2, SVG Export Plug-In . SVG Version: 6.00 Build 0)  -->
<svg version="1.1" id="Layer_1" xmlns="http://www.w3.org/2000/svg" xmlns:xlink="http://www.w3.org/1999/xlink" x="0px" y="0px"
	 width="40px" height="40px" viewBox="0 0 40 40" enable-background="new 0 0 40 40" xml:space="preserve">
<g>
	<path fill="#4C5254" d="M12.56,27.881c0.1,0.2,0.29,0.31,0.49,0.31c0.08,0,0.16-0.02,0.24-0.06l4.17-2.03
		c0.27-0.14,0.38-0.46,0.25-0.73c-0.14-0.27-0.46-0.38-0.73-0.25l-4.17,2.04C12.54,27.291,12.43,27.621,12.56,27.881z"/>
	<path fill="#4C5254" d="M39.93,20.951c-0.02-0.04-0.05-0.08-0.08-0.11c-0.03-0.03-0.06-0.06-0.09-0.08c0-0.01-0.01-0.01-0.02-0.02
		c-0.01,0-0.02-0.01-0.04-0.02l-9.73-4.75c-0.04-0.02-0.08-0.03-0.12-0.05l-4.44-1.94v-7.87c0-0.04-0.01-0.09-0.02-0.13
		c-0.01-0.04-0.02-0.08-0.05-0.12c-0.03-0.07-0.08-0.12-0.14-0.17c-0.01-0.02-0.03-0.03-0.05-0.04c-0.01-0.01-0.03-0.01-0.04-0.01
		c0-0.01-0.01-0.01-0.01-0.01l-9.73-4.76c-0.15-0.07-0.32-0.07-0.47,0l-9.73,4.76c0,0-0.01,0-0.01,0.01c-0.01,0-0.03,0-0.04,0.01
		c-0.02,0.01-0.04,0.02-0.05,0.04c-0.06,0.05-0.11,0.1-0.14,0.17c-0.03,0.04-0.04,0.08-0.05,0.12c-0.01,0.04-0.02,0.09-0.02,0.13
		v12.33l-4.56,2.23c-0.01,0.01-0.02,0.01-0.03,0.02c-0.06,0.03-0.11,0.07-0.13,0.12c-0.03,0.02-0.05,0.05-0.07,0.09
		C0.02,20.981,0,21.071,0,21.161v12.68c0,0.2,0.12,0.39,0.3,0.48l9.68,4.73l0.05,0.03c0.03,0.01,0.06,0.02,0.09,0.03
		c0.05,0.01,0.1,0.02,0.15,0.02c0.05,0,0.1-0.01,0.15-0.02c0.03-0.01,0.06-0.02,0.09-0.03l0.05-0.03l9.39-4.59l9.49,4.64l0.05,0.03
		c0.03,0.01,0.06,0.02,0.09,0.03c0.05,0.01,0.1,0.02,0.15,0.02c0.05,0,0.1-0.01,0.15-0.02c0.03-0.01,0.06-0.02,0.09-0.03l0.05-0.03
		l9.68-4.73c0.18-0.09,0.3-0.28,0.3-0.48v-12.68C40,21.121,39.98,21.031,39.93,20.951z M38.92,33.551l-8.65,4.23v-11.48l8.65-4.23
		V33.551z M19.46,33.501l-8.65,4.23v-11.48l4.43-2.17h0.02c0-0.01,0.01-0.01,0.01-0.01h0.01c0.03-0.01,0.06-0.02,0.09-0.04
		l0.05-0.03l0.02-0.01l4.02-1.96V33.501z M5.95,18.451v-0.54V6.981l8.64,4.22v6.71v0.6v0.6v3.57l-7.96-3.9l-0.62-0.3L5.95,18.451z
		 M15.14,1.961l3.31,1.62l-8.61,4.1l-3.2-1.57L15.14,1.961z M23.63,6.111l-4.53,2.22l-3.96,1.94h-0.01l-4.05-1.99l8.6-4.1
		L23.63,6.111z M5.39,19.391l8.5,4.15l-3.62,1.77l-8.49-4.15L5.39,19.391z M29.73,25.361l-8.49-4.15l8.49-4.15l8.49,4.15
		L29.73,25.361z M25.41,17.941v-2.78l3.03,1.32L25.41,17.941z M24.32,13.501v0.59v0.59v3.77l-2.97,1.45l-0.53,0.26l-0.64,0.32
		l-0.17,0.08l-0.13,0.07l-0.04,0.01c-0.03,0.01-0.05,0.02-0.08,0.03l-0.22,0.11l-0.15,0.08h-0.01l-0.61,0.3h-0.01l-3.08,1.51v-3.02
		v-0.6v-0.61v-7.24l8.64-4.22V13.501z M1.08,22.021l8.65,4.23v11.48l-8.65-4.23V22.021z M20.54,22.071l3.68,1.8
		c-0.01,0.04-0.01,0.07-0.01,0.11v11.36l-3.67-1.79V22.071z M25.29,24.401l3.9,1.9v11.48l-3.9-1.91V24.401z"/>
	<path fill="#4C5254" d="M29.97,22.381l-3.4-1.66c-0.27-0.13-0.59-0.02-0.72,0.25c-0.13,0.27-0.02,0.59,0.24,0.72l3.4,1.66
		c0.08,0.04,0.16,0.06,0.24,0.06c0.2,0,0.39-0.11,0.49-0.3C30.35,22.841,30.24,22.511,29.97,22.381z"/>
	<path fill="#4C5254" d="M7.95,11.051l4.17,2.04c0.07,0.04,0.16,0.05,0.23,0.05c0.2,0,0.4-0.11,0.49-0.3
		c0.13-0.27,0.02-0.59-0.25-0.72l-4.17-2.04c-0.27-0.13-0.59-0.02-0.72,0.25S7.68,10.921,7.95,11.051z"/>
	<path fill="#4C5254" d="M28.74,9.271h2.65v2.65c0,0.3,0.24,0.54,0.54,0.54h3.2c0.3,0,0.54-0.24,0.54-0.54v-2.65h2.65
		c0.3,0,0.54-0.24,0.54-0.54v-3.2c0-0.3-0.24-0.54-0.54-0.54h-2.65v-2.65c0-0.3-0.24-0.54-0.54-0.54h-3.2
		c-0.3,0-0.54,0.24-0.54,0.54v2.65h-2.65c-0.3,0-0.54,0.24-0.54,0.54v3.2C28.2,9.031,28.44,9.271,28.74,9.271z M29.28,6.071h2.65
		c0.3,0,0.54-0.24,0.54-0.54v-2.65h2.12v2.65c0,0.3,0.24,0.54,0.54,0.54h2.65v2.12h-2.65c-0.3,0-0.54,0.24-0.54,0.54v2.65h-2.12
		v-2.65c0-0.3-0.24-0.54-0.54-0.54h-2.65V6.071z"/>
</g>
</svg>
