<?xml version="1.0" encoding="utf-8"?>
<!-- Generator: Adobe Illustrator 21.0.2, SVG Export Plug-In . SVG Version: 6.00 Build 0)  -->
<svg version="1.1" id="Layer_1" xmlns="http://www.w3.org/2000/svg" xmlns:xlink="http://www.w3.org/1999/xlink" x="0px" y="0px"
	 width="40px" height="40px" viewBox="0 0 40 40" style="enable-background:new 0 0 40 40;" xml:space="preserve">
<style type="text/css">
	.st0{fill:#4C5254;}
</style>
<g>
	<path class="st0" d="M34.9473,11.762h-2.7815l0.2918-2.0802c0.0377-0.2494-0.0282-0.4989-0.1788-0.6965
		c-0.1506-0.2024-0.3765-0.3294-0.6212-0.3671l-4.2357-0.593l-5.7276-0.8048l-0.6024-2.3626l-1.0542-4.151
		c-0.1271-0.5036-0.6401-0.8048-1.1436-0.6777l-4.1463,1.0542L7.5564,2.9093L3.4102,3.9588
		C3.3537,3.973,3.3019,3.9918,3.2548,4.0153C3.2219,4.0295,3.1842,4.0483,3.1513,4.0718C3.1372,4.0765,3.1231,4.0859,3.1089,4.1
		c-0.0047,0-0.0047,0.0047-0.0094,0.0047c-0.0282,0.0188-0.0565,0.0424-0.08,0.0659C3.0148,4.1753,3.0148,4.1753,3.0101,4.1801
		c-0.0094,0-0.0141,0.0047-0.0188,0.0141C2.9583,4.2224,2.9301,4.2553,2.9066,4.2883C2.8878,4.3024,2.8783,4.3212,2.8689,4.3353
		C2.8548,4.3542,2.8407,4.373,2.8313,4.3918C2.8266,4.4012,2.8172,4.406,2.8172,4.4201v0.0047
		C2.8124,4.4342,2.8077,4.4436,2.803,4.453C2.7795,4.4907,2.7654,4.5283,2.7513,4.566c0,0.0047-0.0047,0.0141-0.0047,0.0188
		c-0.0141,0.0376-0.0235,0.08-0.0282,0.1224C2.7136,4.726,2.7136,4.7401,2.7089,4.7589C2.7042,4.7919,2.6995,4.8248,2.6995,4.8625
		c0,0.08,0.0094,0.1647,0.0282,0.2447l1.0542,4.1463l0.6824,2.6826c-0.8566,0.3483-1.4637,1.1954-1.4637,2.179v1.7084v20.882v0.9413
		C3.0007,38.9458,4.0549,40,5.3539,40h26.4167c1.2942,0,2.3532-1.0542,2.3532-2.3532h0.8236c1.2942,0,2.3532-1.0542,2.3532-2.3532
		v-5.5864v-6.8853v-8.7067C37.3005,12.8162,36.2416,11.762,34.9473,11.762z M35.418,35.2937c0,0.2588-0.2118,0.4706-0.4706,0.4706
		h-0.8236V31.345l1.2942-0.3812V35.2937z M32.2412,37.6468c0,0.2588-0.2118,0.4706-0.4706,0.4706H16.0655H13.99h-1.6519H5.3539
		c-0.2636,0-0.4706-0.2118-0.4706-0.4706v-0.9413V16.7648H5.688h0.9742h0.9695h5.7982h0.9507h0.9554h2.8191h4.0145h0.0659h0.9083
		h0.9601h0.0141h1.0919h4.358h0.946h0.9507h0.3059c0.2588,0,0.4706,0.2118,0.4706,0.4706v5.5017l-1.5907-0.1459l-0.9413-0.0847
		l-0.9366-0.0847l-3.2944-0.3012l-0.9978-0.0894l-0.993-0.0894l-0.6071-0.0565c-0.0282-0.0047-0.0565-0.0047-0.0847-0.0047
		c-1.7319,0-3.2333,1.0118-3.9439,2.4755c-0.1177,0.2447-0.2165,0.5036-0.2871,0.7718c-0.0988,0.3624-0.1506,0.7436-0.1506,1.1342
		c0,0.3436,0.0376,0.6777,0.1177,0.9977c0.4236,1.8261,2.0002,3.2191,3.9157,3.3744c0.1035,0.0094,0.2024,0.0141,0.3059,0.0141
		l1.1719,0.1083l0.5883,0.0518l1.2566,0.1129l0.1318,0.0141l0.8613,0.0753l0.7954,0.0706l0.1977,0.0188l0.7436,0.0706l0.9366,0.0847
		l2.805,0.2541v5.1958V37.6468z M4.8832,14.1151c0-0.0894,0.0235-0.1741,0.0706-0.2447l0.2588,1.0119H4.8832V14.1151z
		 M14.3853,3.1164c0.8471,1.8543,2.7155,3.045,4.7393,3.045c0.1177,0,0.2353-0.0047,0.353-0.0141L19.68,6.938l-3.8451-0.5365
		c-0.0988-0.0141-0.1929-0.0094-0.2824,0.0047c-0.0282,0.0047-0.0518,0.0094-0.08,0.0188
		c-0.0329,0.0047-0.0659,0.0141-0.0988,0.0282c-0.0047,0-0.0047,0-0.0047,0c-0.0423,0.0188-0.0847,0.0377-0.1271,0.0612
		c-0.0188,0.0094-0.0377,0.0235-0.0565,0.0377c-0.0094,0.0047-0.0188,0.0094-0.0235,0.0141
		c-0.0094,0.0047-0.0188,0.0094-0.0235,0.0141c-0.0047,0.0047-0.0141,0.0094-0.0188,0.0188c-0.0047,0-0.0047,0.0047-0.0094,0.0094
		c-0.0235,0.0141-0.0424,0.0329-0.0612,0.0565c-0.0047,0.0047-0.0094,0.0094-0.0141,0.0141
		c-0.0236,0.0188-0.0424,0.0376-0.0565,0.0612c-0.0282,0.0283-0.0518,0.0612-0.0706,0.0941
		c-0.0094,0.0094-0.0141,0.0188-0.0188,0.0282c-0.0283,0.0518-0.0518,0.1036-0.0706,0.16
		c-0.0235,0.0565-0.0377,0.1177-0.0471,0.1788L14.3947,9.903c-0.4,0.0235-0.8001,0.0847-1.1907,0.1883
		c-1.1248,0.2824-2.1461,0.8707-2.9603,1.6707c-0.2918,0.2871-0.5553,0.6024-0.7907,0.9413
		c-0.2024,0.2965-0.3859,0.6118-0.5412,0.9413c-0.0471,0.1035-0.0941,0.2071-0.1365,0.3106c-0.1271,0.32-0.0706,0.673,0.1318,0.9272
		H7.1564l-0.3153-1.2378l-0.24-0.9413l-0.24-0.9413L5.8151,9.6159C7.7823,8.7217,8.9966,6.6791,8.846,4.5236L14.3853,3.1164z
		 M18.4469,2.0857l0.5553,2.1931c-1.1295-0.0423-2.1743-0.6636-2.7485-1.6378L18.4469,2.0857z M26.3159,9.7712
		c0.0235,0.6918,0.1883,1.3649,0.4801,1.9908c0.1553,0.3247,0.3436,0.6401,0.5648,0.9318c0.0047,0.0047,0.0047,0.0047,0.0094,0.0094
		c0.2683,0.3577,0.5742,0.673,0.9177,0.9413c0.4753,0.3812,1.0119,0.673,1.5907,0.8659h0.0047l-0.0518,0.3718H23.638h-0.9695
		h-0.9742h-6.0947l0.1741-1.2378l0.1318-0.9413l0.0188-0.1553c0.3953-0.0188,0.7813-0.08,1.1531-0.1836
		c0.4894-0.1318,0.9507-0.3341,1.3742-0.6024c0.1836-0.1083,0.353-0.2306,0.5177-0.3671c0.5789-0.4565,1.0636-1.0448,1.4025-1.7272
		c0.1129-0.2212,0.2071-0.4471,0.2871-0.6871l0.5271,0.0706l1.0072,0.1412L26.3159,9.7712z M35.418,14.1151v8.0055l-1.2942,0.3812
		v-5.2664c0-1.299-1.0589-2.3532-2.3532-2.3532h-0.0424l0.1318-0.9319c0.0047-0.0047,0.0047-0.0141,0.0047-0.0188
		c0-0.0047,0-0.0047,0-0.0094l0.0377-0.2777h3.045C35.2062,13.6445,35.418,13.8563,35.418,14.1151z M10.5214,14.6611
		c0.1459-0.3671,0.3388-0.7107,0.5742-1.0166c0.2636-0.3577,0.5789-0.673,0.9319-0.9413c0.4847-0.3671,1.0401-0.6354,1.6425-0.7907
		c0.1506-0.0377,0.3012-0.0659,0.4518-0.0894l-0.1224,0.8801l-0.1318,0.9413l-0.1741,1.2378h-3.2991
		C10.4461,14.8164,10.4885,14.7411,10.5214,14.6611z M17.1621,10.3312c-0.3012,0.1506-0.6259,0.2542-0.9695,0.3059l0.08-0.5789
		l0.2353-1.6614l2.2402,0.3153C18.4187,9.4276,17.8539,9.9971,17.1621,10.3312z M33.1825,29.6649l-0.0941,0.0282l-3.3886-0.3059
		l-0.9413-0.0894l-0.9366-0.0847l-0.5553-0.0471l-0.9977-0.0941l-0.9931-0.0894l-1.5107-0.1365l-0.8848-0.08h-0.0847
		c-1.379,0-2.4991-1.1248-2.4991-2.5037c0-0.0329,0-0.0612,0.0047-0.0941c0.0188-0.5836,0.24-1.1107,0.5977-1.5248
		c0.2824-0.3342,0.6542-0.593,1.0825-0.7389c0.2447-0.0847,0.5036-0.1365,0.7766-0.1412l1.219,0.1082l0.993,0.0941l0.9977,0.0894
		l2.5461,0.2306l0.9366,0.0847l0.9366,0.0847l2.6873,0.2447h0.0235c0.0283,0,0.0565,0.0047,0.0847,0.0047
		c0.0894,0,0.1788-0.0141,0.2636-0.0377l0.1035-0.0329l1.8684-0.5506v4.9181L33.1825,29.6649z M30.4622,10.3548l-0.1929,1.4072
		l-0.1177,0.833h-0.0047c-0.4283-0.1929-0.8048-0.4753-1.1201-0.833c-0.0565-0.0659-0.1129-0.1318-0.1647-0.2024
		c-0.3436-0.4518-0.56-0.9742-0.6401-1.5202L30.4622,10.3548z M6.5116,6.5803C6.2198,7.0697,5.8198,7.4651,5.3397,7.7474
		L4.7844,5.5543L6.9775,4.999C6.9587,5.5496,6.8034,6.0908,6.5116,6.5803z"/>
	<path class="st0" d="M22.805,24.9538c-0.7671,0-1.3883,0.6212-1.3883,1.3884s0.6212,1.3931,1.3883,1.3931
		s1.3931-0.6259,1.3931-1.3931S23.5721,24.9538,22.805,24.9538z M22.805,26.8364c-0.2682,0-0.4894-0.2212-0.4894-0.4942
		c0-0.2683,0.2212-0.4895,0.4894-0.4895c0.273,0,0.4942,0.2212,0.4942,0.4895C23.2991,26.6152,23.0779,26.8364,22.805,26.8364z"/>
</g>
</svg>
