<?xml version="1.0" encoding="utf-8"?>
<!-- Generator: Adobe Illustrator 21.0.2, SVG Export Plug-In . SVG Version: 6.00 Build 0)  -->
<svg version="1.1" id="Layer_1" xmlns="http://www.w3.org/2000/svg" xmlns:xlink="http://www.w3.org/1999/xlink" x="0px" y="0px"
	 width="40px" height="40px" viewBox="0 0 40 40" style="enable-background:new 0 0 40 40;" xml:space="preserve">
<style type="text/css">
	.st0{fill:#4C5254;}
</style>
<g>
	<path class="st0" d="M34.4646,5.9368H5.5326C2.4827,5.9368,0,8.4195,0,11.4722v4.4228v17.6201
		c0,0.3042,0.2439,0.5481,0.5481,0.5481h38.9039c0.3014,0,0.5481-0.2439,0.5481-0.5481V15.895v-4.4228
		C40,8.4195,37.5173,5.9368,34.4646,5.9368z M1.0961,11.4722c0-2.4471,1.9895-4.4393,4.4365-4.4393h28.932
		c2.4471,0,4.4393,1.9922,4.4393,4.4393v3.8748H27.7153c-0.707-3.6117-3.8967-6.3492-7.7166-6.3492
		c-3.8172,0-7.0069,2.7375-7.7139,6.3492H1.0961V11.4722z M26.7534,16.4431c0.0082,0.1398,0.0137,0.2795,0.0137,0.4193
		c0,0.8358-0.1507,1.6359-0.4302,2.3758c-0.0713,0.1863-0.148,0.3699-0.2357,0.5481c-0.0877,0.1891-0.1864,0.3699-0.2932,0.5481
		c-1.1838,1.973-3.3459,3.2966-5.8094,3.2966s-4.6229-1.3236-5.8067-3.2966c-0.1069-0.1781-0.2055-0.359-0.2932-0.5481
		c-0.0877-0.1781-0.1644-0.3617-0.2357-0.5481c-0.2795-0.7399-0.4302-1.54-0.4302-2.3758c0-0.1398,0.0055-0.2795,0.0137-0.4193
		c0.011-0.1836,0.0301-0.3672,0.0576-0.5481c0.0247-0.1863,0.0575-0.3672,0.1014-0.5481c0.1398-0.6138,0.3645-1.1975,0.6577-1.7346
		c0.1617-0.2932,0.3453-0.5755,0.5481-0.8385c0.074-0.1014,0.1535-0.1973,0.2357-0.2932c0.1644-0.1918,0.3398-0.3781,0.5234-0.5481
		c1.2112-1.14,2.8417-1.8387,4.6284-1.8387c1.7894,0,3.4199,0.6988,4.6311,1.8387c0.1863,0.1726,0.359,0.3563,0.5234,0.5481
		c0.0822,0.0959,0.1617,0.1918,0.2357,0.2932c0.2028,0.2631,0.3864,0.5453,0.5481,0.8385c0.2932,0.5371,0.5179,1.1208,0.6577,1.7346
		c0.0438,0.1809,0.0767,0.3617,0.1014,0.5481C26.7233,16.0759,26.7425,16.2595,26.7534,16.4431z M19.9986,24.727
		c3.091,0,5.771-1.7921,7.0562-4.3927h7.9578v8.7443H4.9846v-8.7443h7.9605C14.2303,22.9348,16.9103,24.727,19.9986,24.727z
		 M38.9039,32.967H1.0961V16.4431h11.0516c-0.0082,0.137-0.011,0.2795-0.011,0.4193c0,0.8276,0.1288,1.6277,0.3672,2.3758H4.4365
		c-0.3014,0-0.5481,0.2466-0.5481,0.5481v9.8404c0,0.3014,0.2466,0.5481,0.5481,0.5481h31.1242
		c0.3042,0,0.5481-0.2466,0.5481-0.5481v-9.8404c0-0.3014-0.2439-0.5481-0.5481-0.5481h-8.0647
		c0.2384-0.7481,0.3672-1.5483,0.3672-2.3758c0-0.1398-0.0027-0.2823-0.011-0.4193h11.0516V32.967z"/>
	<path class="st0" d="M22.8239,18.9669c-0.0274-0.063-0.0658-0.1206-0.1178-0.1726l-0.7344-0.7344l-0.6193-0.6193l-0.8056-0.8056
		v-0.1918V15.895V15.347v-0.2768v-1.5894v-0.4522v-0.5481v-0.5481v-0.2137c0-0.3042-0.2439-0.5481-0.5481-0.5481
		c-0.3014,0-0.5481,0.2439-0.5481,0.5481v0.2137v0.5481v0.5481v2.0415v0.2768v0.5481v0.5481v0.4193
		c0,0.1452,0.0576,0.285,0.1617,0.3864l0.8605,0.8605l1.1263,1.129l0.3316,0.3316c0.1069,0.1069,0.2494,0.1589,0.3891,0.1589
		c0.1398,0,0.2795-0.0521,0.3864-0.1589c0.0932-0.0932,0.1452-0.211,0.1535-0.3316c0.0027-0.0027,0.0027-0.0027,0-0.0055
		c0.0082-0.0548,0.0055-0.1096-0.0082-0.1617C22.8485,19.0354,22.8376,18.9998,22.8239,18.9669z"/>
</g>
</svg>
