<?xml version="1.0" encoding="utf-8"?>
<!-- Generator: Adobe Illustrator 21.0.2, SVG Export Plug-In . SVG Version: 6.00 Build 0)  -->
<svg version="1.1" id="Layer_1" xmlns="http://www.w3.org/2000/svg" xmlns:xlink="http://www.w3.org/1999/xlink" x="0px" y="0px"
	 width="40px" height="40px" viewBox="0 0 40 40" style="enable-background:new 0 0 40 40;" xml:space="preserve">
<style type="text/css">
	.st0{fill:#4C5254;}
</style>
<path class="st0" d="M31.5653,27.6583c-0.0392-0.1883-0.2825-1.1352-0.973-1.4046c-0.0026-0.0026-0.0052-0.0026-0.0078-0.0026
	c-0.3034-0.1125-0.599-0.0628-0.8082,0.1386c-0.3008,0.2877-0.2851,0.769-0.1831,1.0829c0.1491,0.4813,0.4682,1.3183,0.9312,1.5694
	c0.1099,0.0602,0.2276,0.0916,0.3426,0.0916c0.1386,0,0.2773-0.0419,0.395-0.1282C31.5941,28.7699,31.7039,28.2782,31.5653,27.6583z
	 M29.0072,28.0533c-0.2171-0.3191-0.5074-0.5545-0.8475-0.6827c-0.0314-0.0157-0.0628-0.0288-0.0968-0.0366
	c-0.0209-0.0079-0.0445-0.0157-0.0602-0.0209l-0.0392-0.0079c-0.0262-0.0105-0.0549-0.0157-0.0837-0.0209
	c-0.3688-0.0654-0.7324,0.0052-1.0358,0.2014c-0.6696,0.4551-0.7951,1.4491-0.2799,2.2207
	c0.2197,0.3165,0.5179,0.5545,0.8684,0.6879c0.0131,0.0052,0.0288,0.0105,0.0419,0.0157c0.0026,0,0.0078,0.0026,0.0105,0.0026
	c0.0052,0.0026,0.0105,0.0026,0.0157,0.0052c0.0183,0.0052,0.0366,0.0105,0.0523,0.0157c0.0105,0.0026,0.0209,0.0052,0.034,0.0079
	c0.0183,0.0052,0.0549,0.0183,0.102,0.0235c0.0942,0.0183,0.1857,0.0262,0.2746,0.0262c0.2746,0,0.5336-0.0759,0.7559-0.225
	C29.3917,29.8109,29.5199,28.8196,29.0072,28.0533z M28.1336,29.3977c-0.068,0.0445-0.1517,0.0576-0.2537,0.0392
	c-0.0261-0.0079-0.0497-0.0157-0.0758-0.0209h-0.0026c-0.0026,0-0.0052-0.0026-0.0079-0.0026
	c-0.1465-0.0602-0.272-0.1648-0.3636-0.2955c-0.2066-0.3113-0.1648-0.6539-0.0052-0.7612c0.0785-0.0523,0.1726-0.0549,0.2485-0.0471
	c0.0052,0.0026,0.0105,0.0052,0.0157,0.0052v-0.0026c0.0078,0.0026,0.0157,0.0052,0.0235,0.0078
	c0.0105,0.0052,0.0209,0.0079,0.0314,0.0105c0.0105,0.0052,0.0183,0.0078,0.0288,0.0105c0.1412,0.0497,0.272,0.1569,0.3662,0.2956
	C28.3272,28.919,28.3246,29.2695,28.1336,29.3977z M38.6954,38.0632c-0.973-1.98-2.6601-3.6671-5.1632-5.158
	c-0.7951-0.476-1.6923-0.7925-2.2991-0.9913c-1.1927-0.3871-2.3462-0.5571-3.5677-0.7376c-0.4656-0.068-0.9442-0.1386-1.4412-0.225
	c-1.2162-0.2066-2.273-0.6748-3.6488-1.6086c-0.5231-0.3557-1.007-0.8658-1.47-1.5354c-0.0209-0.034-0.0602-0.0889-0.1072-0.1543
	c-0.0602-0.0837-0.2119-0.2903-0.2642-0.395c-0.0105-0.2249-0.1674-0.4263-0.3976-0.4839c-0.2799-0.068-0.5623,0.102-0.633,0.3819
	c0,0.0026,0,0.0026,0,0.0052v0.0026c-0.0261,0.102-0.2223,1.0096,0.0785,2.3096c-4.4544-0.429-8.7126-2.919-10.758-6.3455
	C5.4013,17.0677,6.5208,9.4092,11.5166,6.0507c4.8807-3.28,12.4346-0.9469,16.4967,5.0926
	c2.3305,3.4604,3.1623,7.5931,2.2808,11.1765c-2.1919-1.2346-4.0777-0.4943-4.164-0.4603c-0.2406,0.0994-0.374,0.3583-0.3086,0.612
	c0.0628,0.2511,0.3008,0.4237,0.5597,0.3923c1.9565-0.1988,3.5729,1.3863,3.5886,1.402c0.0052,0.0052,0.0131,0.0131,0.0209,0.0209
	c0.2563,0.2276,0.4839,0.4656,0.6644,0.6905l0.0288,0.0392c0.0392,0.0523,0.0759,0.1046,0.1256,0.1753
	c0.5179,0.7036,0.8684,1.5197,1.0149,2.3593c0.034,0.204,0.1857,0.3688,0.3871,0.4185c0.1988,0.0523,0.4107-0.0209,0.5388-0.1831
	c4.7029-5.9662,5.2155-14.0589,1.2738-20.1376c-2.5031-3.8633-6.4422-6.4632-11.0954-7.3263
	C18.2858-0.5354,13.494,0.4429,9.4294,3.0768C5.3647,5.7133,2.5163,9.689,1.4047,14.2742
	c-1.1116,4.5982-0.3452,9.2566,2.1605,13.1199c4.1379,6.3952,13.8235,8.6969,19.9231,6.7666
	c2.0349-0.6408,8.9245-1.1953,13.711,4.457c0.0026,0.0052,0.3766,0.4368,0.5754,0.9076c0.0366,0.0915,0.1439,0.306,0.3976,0.408
	c0.0785,0.0314,0.1595,0.0471,0.2432,0.0471c0.1151,0,0.2302-0.0288,0.3426-0.0863C39.4304,39.5384,38.9178,38.5052,38.6954,38.0632
	z M26.5459,32.7378c-1.4831,0-2.6836,0.2092-3.3715,0.4237c-5.0717,1.606-14.6474-0.0288-18.733-6.3376
	c-2.3462-3.6174-3.0629-7.9881-2.0193-12.3012c1.0462-4.3262,3.7377-8.0796,7.5774-10.5671
	c3.8371-2.4901,8.3621-3.4134,12.738-2.6025c4.3681,0.8082,8.0639,3.246,10.4101,6.866c3.5128,5.4143,3.246,12.5471-0.5833,18.0608
	c-0.2171-0.6042-0.5205-1.177-0.8998-1.6897c-0.0445-0.068-0.0915-0.1308-0.1386-0.1936l-0.0392-0.0549
	c-0.1988-0.2459-0.4237-0.4891-0.6722-0.7219c0.1413-0.0602,0.2485-0.1805,0.293-0.3296l0.0261-0.0811
	c1.2215-4.0097,0.3793-8.7387-2.252-12.6491c-4.3785-6.5103-12.5994-8.9715-17.9483-5.3777
	c-2.6392,1.7734-4.3916,4.6558-4.9331,8.1162c-0.5467,3.4788,0.2093,7.1589,2.1239,10.3657
	c2.3331,3.9051,7.2949,6.6803,12.3457,6.9078c0.1726,0.0052,0.34-0.0732,0.4447-0.2119c0.102-0.1413,0.1308-0.3217,0.0732-0.4865
	c-0.0994-0.2773-0.17-0.5414-0.2197-0.7847c0.3871,0.4551,0.7873,0.8239,1.2163,1.1195c1.1064,0.7481,2.3645,1.483,4.062,1.7734
	c0.5074,0.0863,0.9913,0.1596,1.4648,0.2302c1.1796,0.1726,2.2913,0.3374,3.3977,0.6958c0.5571,0.1831,1.381,0.4734,2.0872,0.8945
	c0.905,0.5414,1.6949,1.1038,2.3724,1.6975C32.3631,33.3342,29.0517,32.7378,26.5459,32.7378z"/>
</svg>
