<?xml version="1.0" encoding="utf-8"?>
<!-- Generator: Adobe Illustrator 21.0.2, SVG Export Plug-In . SVG Version: 6.00 Build 0)  -->
<svg version="1.1" id="Layer_1" xmlns="http://www.w3.org/2000/svg" xmlns:xlink="http://www.w3.org/1999/xlink" x="0px" y="0px"
	 width="40px" height="40px" viewBox="0 0 40 40" enable-background="new 0 0 40 40" xml:space="preserve">
<g>
	<path fill="#4C5254" d="M33.1701,1.4379H6.8325c-3.7766,0-6.8489,2.4692-6.8489,5.4999V9.374c0,0.0016,0,0.0031,0,0.0047v0.0049
		c0,0.0021,0.0009,0.0042,0.0009,0.0062C-0.0149,9.4325-0.0078,9.475,0.0034,9.517C0.0053,9.5237,0.007,9.5302,0.0091,9.5369
		c0.0141,0.0451,0.0322,0.0895,0.0593,0.131l3.1239,4.7683L0.048,20.1281c-0.0006,0.001-0.0014,0.0022-0.002,0.0032
		c-0.0104,0.0182-0.0182,0.039-0.026,0.0598c-0.001,0.0024-0.0014,0.0053-0.0024,0.0078c-0.0068,0.0182-0.0126,0.0363-0.0172,0.0548
		c-0.0003,0.0008-0.0012,0.0024-0.0012,0.0024c0,0.0017,0,0.0024,0,0.0034c-0.0008,0.0035-0.0014,0.007-0.0022,0.0105
		c-0.0001,0.0006-0.0004,0.0013-0.0004,0.0017c-0.0003,0.0009-0.0002,0.0016-0.0004,0.0025
		c-0.006,0.0287-0.0098,0.0573-0.0109,0.0862c-0.0004,0.0066-0.0016,0.0139-0.0016,0.0205v17.6615
		c0,0.2859,0.2313,0.5198,0.5198,0.5198h38.9931c0.2859,0,0.5198-0.2339,0.5198-0.5198V20.3808c0,0,0-0.0026,0-0.0052
		c0-0.0137-0.0019-0.0264-0.0034-0.0394c-0.0005-0.0058-0.0008-0.0115-0.0015-0.0173c-0.0001-0.0011-0.0001-0.002-0.0003-0.0031
		c-0.0026-0.0182-0.0052-0.0364-0.0104-0.0546c-0.0009-0.0042-0.0027-0.008-0.0038-0.0122
		c-0.0038-0.0144-0.0081-0.0286-0.0131-0.0428c-0.0014-0.004-0.0024-0.0087-0.0039-0.0126
		c-0.0078-0.0234-0.0182-0.0442-0.0286-0.065c-0.0008-0.0014-0.0021-0.0025-0.0029-0.0039l-3.1401-5.6887l3.1229-4.7684
		c0.0136-0.0208,0.0233-0.0428,0.0336-0.0647c0.0006-0.0012,0.0015-0.0025,0.0021-0.0037c0.0002-0.0005,0.0004-0.001,0.0006-0.0014
		c0.0064-0.0141,0.0126-0.028,0.0176-0.0424c0.0024-0.0062,0.0054-0.0124,0.0077-0.0186c0.0026-0.0078,0.0052-0.0156,0.0078-0.026
		c0.0014-0.0096,0.0034-0.0192,0.0055-0.0289c0.0007-0.0038,0.0015-0.0075,0.0022-0.0113c0.001-0.0048,0.0021-0.0096,0.0027-0.0144
		c0.0026-0.0234,0.0052-0.0494,0.0052-0.0728V6.9377C40.0164,3.9071,36.9441,1.4379,33.1701,1.4379z M4.1056,14.9331h31.7897
		l2.7201,4.9278H25.4011H14.6015H1.3833L4.1056,14.9331z M1.0233,20.9006H14.105c0.0884,1.0553,0.4549,2.0352,1.0267,2.8591H4.4023
		c-0.2859,0-0.5198,0.2339-0.5198,0.5198v9.8639c0,0.2859,0.2339,0.5198,0.5198,0.5198h31.1955
		c0.2885,0,0.5198-0.2339,0.5198-0.5198v-9.8639c0-0.2859-0.2313-0.5198-0.5198-0.5198H24.8683
		c0.5744-0.8239,0.9409-1.8038,1.0293-2.8591h13.0791v16.6218H1.0233V20.9006z M16.0466,24.7994
		c1.0501,0.9435,2.4354,1.5179,3.9534,1.5179c1.5179,0,2.9059-0.5744,3.9534-1.5179h11.1245v8.8243H4.9221v-8.8243H16.0466z
		 M22.9527,24.2796c-0.2625,0.2001-0.5484,0.3769-0.8499,0.5198c-0.6368,0.3067-1.349,0.4783-2.1027,0.4783
		c-0.7538,0-1.4659-0.1716-2.1028-0.4783c-0.3015-0.143-0.5848-0.3171-0.8473-0.5198c-0.2079-0.1559-0.4003-0.3301-0.5796-0.5198
		c-0.7226-0.7616-1.206-1.7545-1.323-2.8591h9.708c-0.1144,1.1021-0.5978,2.0975-1.323,2.8591
		C23.353,23.9495,23.1606,24.121,22.9527,24.2796z M35.9211,13.8934H4.0797l-2.614-3.99h13.1358h3.7168v0.8941
		c0,0.2859,0.2313,0.5198,0.5198,0.5198h2.3263c0.2885,0,0.5198-0.2339,0.5198-0.5198V9.9034h3.7168h13.1331L35.9211,13.8934z
		 M6.8325,2.4775h26.3376c3.1554,0,5.7286,1.9416,5.804,4.351h-13.573H14.6015H1.0259C1.1013,4.4191,3.6771,2.4775,6.8325,2.4775z
		 M38.9767,8.8638H25.921V7.8683h13.0557V8.8638z M19.358,9.9034h1.2866v0.3743H19.358V9.9034z M18.8382,8.8638h-0.5198h-3.197
		V7.8683h9.76v0.9955h-3.197h-0.5198H18.8382z M14.0816,8.8638H1.0233V7.8683h13.0583V8.8638z"/>
	<path fill="#4C5254" d="M20,21.0644c-0.8889,0-1.6089,0.72-1.6089,1.6063c0,0.4211,0.1611,0.8032,0.4263,1.0891
		c0.2937,0.3197,0.7148,0.5198,1.1826,0.5198c0.4679,0,0.8889-0.2001,1.1826-0.5198c0.2651-0.2859,0.4263-0.668,0.4263-1.0891
		C21.6089,21.7844,20.8889,21.0644,20,21.0644z"/>
</g>
</svg>
