<?xml version="1.0" encoding="utf-8"?>
<!-- Generator: Adobe Illustrator 21.0.2, SVG Export Plug-In . SVG Version: 6.00 Build 0)  -->
<svg version="1.1" id="Layer_1" xmlns="http://www.w3.org/2000/svg" xmlns:xlink="http://www.w3.org/1999/xlink" x="0px" y="0px"
	 width="40px" height="40px" viewBox="0 0 40 40" enable-background="new 0 0 40 40" xml:space="preserve">
<g>
	<path fill="#4C5254" d="M26.46,33.2402V29.926c0-0.019,0-0.0353-0.0027-0.0544c-0.0979-2.3137-6.43-3.5263-12.686-3.5263
		s-12.5881,1.2126-12.686,3.5263c-0.0027,0.019-0.0027,0.0353-0.0027,0.0544v3.4067c-0.5927,0.4432-0.8945,0.938-0.8945,1.4736
		c0,2.5067,6.865,3.8199,13.6457,3.8199c5.3778,0,10.2309-0.8184,12.3597-2.0826c0.8537-0.5084,1.286-1.093,1.286-1.7373
		C27.4796,34.2326,27.137,33.7078,26.46,33.2402z M13.8339,37.5386c-7.667,0-12.5582-1.6177-12.5582-2.7324
		c0-0.2012,0.2365-0.4676,0.6444-0.7314c0.1577-0.1006,0.2501-0.2719,0.2501-0.4568v-2.1479
		c2.088,1.3431,6.865,2.0364,11.6012,2.0364s9.5131-0.6933,11.6012-2.0364v2.069c0,0.1903,0.1006,0.3671,0.2637,0.4649
		c0.4812,0.2855,0.7558,0.5791,0.7558,0.8021c0,0.2256-0.2746,0.5166-0.7558,0.802C23.695,36.7638,18.9507,37.5386,13.8339,37.5386z
		 M2.578,29.3822c1.1908-0.87,4.9863-1.9494,11.1934-1.9494s10.0025,1.0794,11.1934,1.9494
		c0.2719,0.1957,0.4078,0.3833,0.4078,0.5438c0,0.1604-0.1359,0.348-0.4078,0.5438c-1.1908,0.87-4.9863,1.9494-11.1934,1.9494
		S3.7688,31.3397,2.578,30.4697c-0.2719-0.1958-0.4078-0.3834-0.4078-0.5438C2.1701,29.7655,2.3061,29.5779,2.578,29.3822z"/>
	<path fill="#4C5254" d="M39.1895,30.225l-8.5615-9.9264c0.5302-0.5682,0.5791-1.46,0.0788-2.0881
		c-0.5275-0.6525-1.4681-0.7857-2.1506-0.3154l-4.4099-5.1141l1.721-1.4219c0.2828,0.1849,0.6036,0.2991,0.9489,0.3317
		c0.068,0.0082,0.1359,0.0109,0.2039,0.0109c0.484,0,0.9489-0.1659,1.3295-0.4785c0.4323-0.3562,0.6987-0.8592,0.7531-1.4165
		c0.0517-0.5574-0.1142-1.1038-0.4704-1.5334l-5.0597-6.1364c-0.3562-0.4323-0.8591-0.6987-1.4165-0.7531
		c-0.5574-0.0544-1.1011,0.1142-1.5334,0.4703c-0.4323,0.3562-0.6987,0.8591-0.7531,1.4165
		c-0.0326,0.3426,0.019,0.6824,0.1468,0.9924L13.2983,9.804c-0.7477-0.4894-1.7564-0.4622-2.4823,0.1359
		c-0.4323,0.3562-0.6987,0.8592-0.7531,1.4165c-0.0517,0.5574,0.1142,1.1011,0.4704,1.5334l5.0597,6.1364
		c0.3562,0.4323,0.8591,0.6987,1.4165,0.7531c0.068,0.0054,0.1359,0.0082,0.2039,0.0082c0.484,0,0.9516-0.1659,1.3295-0.4785
		c0.7232-0.5954,0.9434-1.5796,0.6063-2.4062l1.7264-1.4247l4.1462,5.2609c-0.5492,0.5709-0.6036,1.4736-0.0979,2.1071
		c0.3154,0.3915,0.7803,0.5981,1.2479,0.5981c0.2773,0,0.5574-0.0734,0.8075-0.2229l8.1564,10.3533
		c0.4459,0.5492,1.0766,0.8918,1.7808,0.9652c0.0924,0.0082,0.1822,0.0136,0.2719,0.0136c0.6063,0,1.1908-0.2093,1.6666-0.6008
		c0.5465-0.4513,0.8809-1.0875,0.9461-1.7917C39.8638,31.4567,39.649,30.7715,39.1895,30.225z M26.286,22.3432
		c-0.1849,0.0435-0.3861-0.019-0.5111-0.1767c-0.1278-0.1604-0.1441-0.3725-0.0571-0.5438c0.0299-0.0653,0.0761-0.1251,0.1359-0.174
		l0.6797-0.5465l1.8787-1.5035l0.7287-0.5846c0.0435-0.0353,0.0897-0.0598,0.1386-0.0788c0.0571-0.0218,0.1196-0.0326,0.1795-0.0326
		c0.1495,0,0.2963,0.0653,0.3969,0.1903c0.1332,0.1631,0.1468,0.3888,0.0462,0.5628c-0.0272,0.0571-0.0707,0.1088-0.1251,0.1523
		l-0.6987,0.5601l-1.914,1.5361l-0.6743,0.541C26.4274,22.2942,26.3567,22.3269,26.286,22.3432z M21.3133,2.6916
		c0.1822-0.1495,0.4078-0.2311,0.6416-0.2311c0.0326,0,0.0653,0.0027,0.0979,0.0054c0.2664,0.0272,0.5084,0.155,0.6797,0.3616
		l5.0597,6.1364c0.1713,0.2066,0.2528,0.4703,0.2257,0.7368c-0.0245,0.2692-0.1523,0.5111-0.3616,0.6824
		c-0.2066,0.1713-0.4703,0.2501-0.7368,0.2257c-0.2583-0.0245-0.4921-0.1441-0.6607-0.3399
		c-0.0081-0.0054-0.0163-0.0136-0.0218-0.0218l-5.0597-6.1364c-0.0027-0.0027-0.0027-0.0027-0.0027-0.0054
		c-0.1686-0.2066-0.2474-0.4676-0.2229-0.7314C20.9789,3.1048,21.1067,2.8629,21.3133,2.6916z M17.8495,18.4689
		c-0.2066,0.1713-0.4704,0.2528-0.7368,0.2257c-0.2692-0.0245-0.5111-0.1523-0.6824-0.3616l-5.0597-6.1364
		c-0.1713-0.2066-0.2501-0.4676-0.2256-0.7368c0.0272-0.2665,0.155-0.5084,0.3643-0.6824c0.1876-0.1523,0.4133-0.2284,0.6389-0.2284
		c0.2909,0,0.5791,0.1251,0.7803,0.3671l5.0597,6.1336c0.0081,0.0109,0.0163,0.0218,0.0245,0.0326
		C18.3389,17.5091,18.2682,18.1236,17.8495,18.4689z M20.5656,14.3254l-2.0337,1.6748l-4.4697-5.4186l6.5714-5.4186l4.4697,5.4186
		l-2.0636,1.702L20.5656,14.3254z M21.713,14.7849l1.5905-1.3105l4.399,5.1005l-1.8406,1.4736L21.713,14.7849z M38.1618,33.1124
		c-0.3181,0.2637-0.7232,0.3861-1.1338,0.3453c-0.4132-0.0435-0.7857-0.242-1.0413-0.5601L27.8385,22.558l1.9494-1.5633
		l8.5724,9.9373c0.2692,0.3154,0.3942,0.7178,0.3562,1.131C38.6784,32.4762,38.4826,32.8487,38.1618,33.1124z"/>
</g>
</svg>
