<?xml version="1.0" encoding="utf-8"?>
<!-- Generator: Adobe Illustrator 21.0.2, SVG Export Plug-In . SVG Version: 6.00 Build 0)  -->
<svg version="1.1" id="Layer_1" xmlns="http://www.w3.org/2000/svg" xmlns:xlink="http://www.w3.org/1999/xlink" x="0px" y="0px"
	 width="40px" height="40px" viewBox="0 0 40 40" style="enable-background:new 0 0 40 40;" xml:space="preserve">
<style type="text/css">
	.st0{fill:#4C5254;}
</style>
<g>
	<path class="st0" d="M34.4674,5.9368H5.5354c-0.1973,0-0.3946,0.011-0.5864,0.0329c-0.0247,0-0.0466,0.0027-0.0712,0.0055
		C4.8695,5.9779,4.8613,5.9779,4.8531,5.9807C2.121,6.3177,0,8.6497,0,11.4722v4.4228v17.6201c0,0.3042,0.2466,0.5481,0.5481,0.5481
		h38.9039c0.3042,0,0.5481-0.2439,0.5481-0.5481V15.895v-4.4228C40,8.4195,37.5173,5.9368,34.4674,5.9368z M1.0961,11.4722
		c0-2.1237,1.4989-3.9022,3.4939-4.3379l2.0771,5.8724c-0.1425,0.1041-0.2823,0.2192-0.4165,0.3398
		c-0.6221,0.5618-1.0989,1.2441-1.403,2.0004H1.0961V11.4722z M34.4674,7.033c2.4471,0,4.4365,1.9922,4.4365,4.4393v3.8748H25.9368
		v-2.8663c0-0.3014-0.2439-0.5481-0.5481-0.5481H14.6112c-0.3014,0-0.5481,0.2466-0.5481,0.5481v1.34l-0.0712-0.0795
		c-1.6442-1.8196-4.242-2.2799-6.363-1.3044L5.7162,7.033H34.4674z M1.0961,16.4431h3.4363
		c-0.0438,0.2274-0.0712,0.4576-0.0822,0.6906c-0.0356,0.7262,0.0685,1.4387,0.3042,2.1045H4.4393
		c-0.3042,0-0.5481,0.2466-0.5481,0.5481v9.8404c0,0.3014,0.2439,0.5481,0.5481,0.5481h9.6184l2.4471,2.7101
		c0.0274,0.0329,0.0603,0.0603,0.0932,0.0822H1.0961V16.4431z M24.8407,15.347v0.5481v0.0164c0,0.1809-0.011,0.3562-0.0301,0.5316
		c-0.1178,1.0769-0.5892,2.047-1.2989,2.7951c-0.1891,0.2-0.3946,0.3836-0.6138,0.5481c-0.2877,0.2165-0.6001,0.4001-0.9344,0.5481
		c-0.5097,0.2274-1.0687,0.3699-1.6551,0.4056l-0.3672-0.4056l-0.4932-0.5481l-0.496-0.5481l-2.5211-2.7951l-0.496-0.5481
		l-0.4932-0.5481l-0.2822-0.3124v-2.0059h9.6814V15.347z M19.2971,29.6266l-0.6084,0.5481l-1.7401,1.5702l-1.4167-1.5702
		l-0.496-0.5481l-0.4932-0.5481l-7.8756-8.7278c-0.0055-0.0055-0.011-0.011-0.0137-0.0164
		c-0.1562-0.1726-0.2959-0.3562-0.4165-0.5481c-0.1151-0.1754-0.2165-0.359-0.3014-0.5481c-0.2905-0.633-0.4275-1.3318-0.3919-2.047
		c0.0137-0.2548,0.0466-0.5042,0.1041-0.7481c0.0411-0.1863,0.0932-0.3699,0.1589-0.5481c0.0712-0.1891,0.1535-0.3727,0.2466-0.5481
		c0.2357-0.4412,0.5481-0.8413,0.9317-1.1866c0.0219-0.0192,0.0466-0.0411,0.0685-0.0603l0.411,1.1591
		c-0.0219,0.0301-0.0411,0.0576-0.0548,0.0877c-0.1123,0.1699-0.1863,0.3562-0.2302,0.5481
		c-0.0439,0.1809-0.0548,0.3645-0.0384,0.5481c0.0274,0.3754,0.1781,0.7454,0.4494,1.0468c0.3206,0.3535,0.7563,0.559,1.2304,0.5837
		c0.0329,0.0027,0.063,0.0027,0.0959,0.0027c0.4412,0,0.8605-0.1617,1.1893-0.4576c0.3507-0.3151,0.5453-0.7399,0.5809-1.1756
		c0.0137-0.1836,0.0027-0.3672-0.0411-0.5481c-0.0411-0.1918-0.1178-0.3754-0.2274-0.5481
		c-0.0521-0.0849-0.1151-0.1672-0.1836-0.2439c-0.3507-0.3891-0.8358-0.5892-1.3235-0.5892c-0.1754,0-0.3508,0.0274-0.5207,0.0795
		l-0.3946-1.1153c0.6056-0.2987,1.266-0.4467,1.9264-0.4467c1.1975,0,2.3923,0.4878,3.2554,1.4441l0.7865,0.8714l0.0987,0.1096
		l0.3946,0.4384l0.1589,0.1726l0.3371,0.3754l0.2795,0.3097l2.2416,2.4854l0.496,0.5481l0.4933,0.5481l0.2055,0.2274l0.622,0.6878
		l0.5344,0.5919l3.6336,4.0282l-3.5569,3.2089L19.2971,29.6266z M4.9873,20.3343H5.286c0.1644,0.2631,0.3562,0.5152,0.57,0.7508
		l7.2124,7.9934H4.9873V20.3343z M9.5828,16.4431c-0.0301,0.1343-0.1014,0.2603-0.211,0.3617
		c-0.2795,0.2521-0.7125,0.2302-0.9673-0.0493c-0.0822-0.0932-0.1343-0.2-0.1589-0.3124C8.2044,16.254,8.2428,16.054,8.3579,15.895
		c0.0274-0.0384,0.0603-0.074,0.0959-0.1069c0.2823-0.2548,0.7152-0.2329,0.9673,0.0493c0.0164,0.0192,0.0329,0.0384,0.0466,0.0576
		C9.5855,16.0567,9.6239,16.2568,9.5828,16.4431z M24.5996,26.3164c0.2247-0.2028,0.2439-0.5508,0.0411-0.7755l-3.4418-3.8145
		c1.044-0.2165,1.9895-0.707,2.7567-1.3921h11.0598v8.7443H21.5387L24.5996,26.3164z M38.9039,32.967H17.2227
		c0.0192-0.011,0.0384-0.0247,0.0548-0.0411l3.0472-2.7512h15.2387c0.3014,0,0.5481-0.2466,0.5481-0.5481v-9.8404
		c0-0.3014-0.2466-0.5481-0.5481-0.5481H24.9147c0.5508-0.8111,0.907-1.7647,0.9975-2.7951h12.9917V32.967z"/>
	<path class="st0" d="M20.0014,18.1805c0.8851,0,1.6031-0.718,1.6031-1.6031c0-0.0438-0.0027-0.0904-0.0055-0.1343
		c-0.0165-0.1946-0.0685-0.3782-0.148-0.5481c-0.0986-0.2137-0.2439-0.4001-0.422-0.5481
		c-0.2768-0.2329-0.6385-0.3754-1.0276-0.3754c-0.3919,0-0.7536,0.1425-1.0304,0.3754c-0.1781,0.148-0.3234,0.3343-0.422,0.5481
		c-0.0164,0.0301-0.0302,0.063-0.0411,0.0959c-0.0137,0.0329-0.0274,0.0658-0.0356,0.0987
		c-0.0082,0.0274-0.0164,0.0521-0.0219,0.0767c-0.0247,0.0877-0.0411,0.1809-0.0493,0.2768
		c-0.0027,0.0439-0.0055,0.0904-0.0055,0.1343C18.3956,17.4625,19.1135,18.1805,20.0014,18.1805z"/>
	<path class="st0" d="M21.1578,25.3627l-3.683-4.0803l-0.855-0.9481l-0.496-0.5481l-0.4932-0.5481l-1.2304-1.3619l-1.1372-1.2605
		c-0.0877-0.0959-0.1973-0.1535-0.3151-0.1726c-0.063-0.011-0.1288-0.011-0.1918,0c-0.0959,0.0192-0.1891,0.0603-0.2685,0.1315
		l-2.9513,2.6636l-0.6056,0.5481l-0.1041,0.0932c-0.1069,0.0987-0.1726,0.2357-0.1809,0.3809c0,0.0247,0,0.0493,0.0055,0.074
		c0.0082,0.1178,0.0548,0.2302,0.137,0.3206l7.6016,8.4236l0.2932,0.3234c0.1069,0.1206,0.2576,0.1809,0.4056,0.1809
		c0.1315,0,0.2631-0.0466,0.3672-0.1425l0.4001-0.3617l3.261-2.9403C21.3414,25.9355,21.3605,25.5874,21.1578,25.3627z
		 M17.1295,28.262l-7.1521-7.9277l-0.0082-0.0082l0.5974-0.5398l0.6083-0.5481l1.6414-1.4825l1.3373,1.4825l0.496,0.5481
		l0.4932,0.5481l4.8339,5.3573L17.1295,28.262z"/>
</g>
</svg>
