<?xml version="1.0" encoding="utf-8"?>
<!-- Generator: Adobe Illustrator 21.0.2, SVG Export Plug-In . SVG Version: 6.00 Build 0)  -->
<svg version="1.1" id="Layer_1" xmlns="http://www.w3.org/2000/svg" xmlns:xlink="http://www.w3.org/1999/xlink" x="0px" y="0px"
	 width="40px" height="40px" viewBox="0 0 40 40" style="enable-background:new 0 0 40 40;" xml:space="preserve">
<style type="text/css">
	.st0{fill:#4C5254;}
</style>
<g>
	<path class="st0" d="M34.2007,3.2864c-0.9221,0-1.6727,0.7506-1.6727,1.6754v1.1366c0,0.3324-0.2707,0.6005-0.6031,0.6005
		c-0.3297,0-0.6005-0.2681-0.6005-0.6005v-4.423C31.3244,0.7506,30.5738,0,29.6517,0c-0.9248,0-1.6754,0.7506-1.6754,1.6754v7.7014
		c0,0.3324-0.2681,0.6005-0.6005,0.6005c-0.3324,0-0.6005-0.2681-0.6005-0.6005V6.983c0-0.9221-0.7506-1.6727-1.6754-1.6727
		c-0.9221,0-1.6727,0.7506-1.6727,1.6727v4.8036l-8.1062,7.8863l-0.8498-0.8712c-0.2064-0.2118-0.5468-0.2171-0.7586-0.0107
		l-3.0559,2.9728c-0.2949,0.2868-0.4584,0.6702-0.4637,1.0803c-0.008,0.4101,0.1474,0.7988,0.4343,1.0937
		c0.8739,0.898,1.2599,2.123,1.0562,3.3615c-0.201,1.2384-0.957,2.2758-2.0748,2.8495l-3.0452,1.5655
		C5.0196,32.5077,4.0653,34.1,4.1297,35.77c0.0429,1.0856,0.4852,2.115,1.2465,2.8977c0.7586,0.7801,1.7772,1.2519,2.8629,1.3242
		C8.3302,39.9973,8.4213,40,8.5124,40c1.5682,0,3.0559-0.8926,3.8467-2.3294l1.6459-3.0023
		c0.6058-1.1017,1.6647-1.8282,2.9058-1.9971c1.2438-0.1689,2.4581,0.252,3.3347,1.15c0.5897,0.6085,1.5628,0.6219,2.1713,0.0295
		l1.0106-0.9838v3.0478c0,0.9221,0.7506,1.6727,1.6727,1.6727c0.9248,0,1.6754-0.7506,1.6754-1.6727v-2.1365
		c0-0.3324,0.2681-0.6031,0.6005-0.6031c0.3324,0,0.6005,0.2707,0.6005,0.6031v1.5145c0,0.9248,0.7506,1.6754,1.6754,1.6754
		c0.9221,0,1.6727-0.7506,1.6727-1.6754v-3.7904c0-0.3324,0.2707-0.6005,0.6005-0.6005c0.3324,0,0.6031,0.2681,0.6031,0.6005v2.2758
		c0,0.9221,0.7506,1.6727,1.6727,1.6727s1.6727-0.7506,1.6727-1.6727V4.9618C35.8734,4.037,35.1228,3.2864,34.2007,3.2864z
		 M34.8012,33.7783c0,0.3297-0.2681,0.6005-0.6005,0.6005s-0.6005-0.2707-0.6005-0.6005v-2.2758
		c0-0.9221-0.7506-1.6727-1.6754-1.6727c-0.9221,0-1.6727,0.7506-1.6727,1.6727v3.7904c0,0.3324-0.2707,0.6031-0.6005,0.6031
		c-0.3324,0-0.6031-0.2707-0.6031-0.6031v-1.5145c0-0.9248-0.7506-1.6754-1.6727-1.6754c-0.9221,0-1.6727,0.7506-1.6727,1.6754
		v2.1365c0,0.3324-0.2707,0.6005-0.6031,0.6005c-0.3297,0-0.6005-0.2681-0.6005-0.6005v-4.0906l0.9731-0.9463
		c0.1019-0.0992,0.1608-0.2359,0.1635-0.378c0-0.1421-0.0536-0.2788-0.1528-0.3806l-0.8497-0.8712l8.4171-8.1919
		c0.2144-0.2064,0.2171-0.5469,0.0107-0.7586l-2.2169-2.2785l-4.1147-4.23c0-0.0027-0.0027-0.0027-0.0027-0.0027
		c-0.0027-0.0054-0.0054-0.008-0.0107-0.0134c-0.0054-0.0054-0.008-0.008-0.0134-0.0107l-2.2034-2.2651V6.983
		c0-0.3324,0.2707-0.6005,0.6005-0.6005c0.3324,0,0.6031,0.2681,0.6031,0.6005v2.3938c0,0.9221,0.7506,1.6727,1.6727,1.6727
		c0.9221,0,1.6727-0.7506,1.6727-1.6727V1.6754c0-0.3324,0.2707-0.6031,0.6031-0.6031c0.3297,0,0.6005,0.2707,0.6005,0.6031v4.423
		c0,0.9221,0.7506,1.6727,1.6727,1.6727c0.9248,0,1.6754-0.7506,1.6754-1.6727V4.9618c0-0.3324,0.2681-0.6031,0.6005-0.6031
		s0.6005,0.2707,0.6005,0.6031V33.7783z M21.0121,33.0733c-1.1125-1.1446-2.6592-1.6781-4.2434-1.4636
		c-1.5842,0.2144-2.9326,1.1419-3.7019,2.5412l-1.6486,3.0023c-0.6353,1.158-1.855,1.8496-3.1095,1.7692
		c-0.8203-0.0563-1.5896-0.4101-2.1659-1.0025c-0.5737-0.5924-0.9087-1.3698-0.9409-2.1927
		c-0.0509-1.2545,0.6782-2.4554,1.8523-3.0586l3.0452-1.5655c1.4234-0.7291,2.3857-2.0533,2.6431-3.6295
		c0.2573-1.5789-0.2332-3.139-1.3457-4.2836c-0.0885-0.0911-0.134-0.2064-0.1313-0.3297c0-0.126,0.0509-0.2413,0.1394-0.327
		l2.6726-2.6002l0.8471,0.8712l0.0027,0.0027l8.5002,8.7361l0.0643,0.067l0.4718,0.4852l0.378,0.3887l-0.378,0.3672l-0.5361,0.52
		l-1.7585,1.7102C21.4866,33.261,21.1917,33.2583,21.0121,33.0733z M23.4273,13.2824l0.5361-0.52l0.1394-0.1367l0.3967,0.4075
		l1.0722,1.1044l-1.0722,1.0427l-0.5361,0.5227l-0.5361,0.5227l-4.5436,4.4203c-0.2118,0.2064-0.2171,0.5442-0.0107,0.7586
		c0.1045,0.1072,0.2439,0.1608,0.3833,0.1608c0.1367,0,0.2707-0.0509,0.3753-0.1501l3.7957-3.6939l0.5361-0.5227l0.5361-0.52
		l1.8228-1.7719l3.3802,3.4741l-3.8601,3.7555c-0.2118,0.2064-0.2171,0.5469-0.0107,0.7586
		c0.1045,0.1072,0.2439,0.1608,0.3833,0.1608c0.1367,0,0.2707-0.0482,0.3753-0.1501l3.8601-3.7582l1.469,1.5118l-7.4199,7.2216
		l-0.5361,0.5227l-0.0777,0.0751l-0.4584-0.4718l-7.3583-7.5647L23.4273,13.2824z"/>
	<path class="st0" d="M8.6143,33.6898c-0.4906,0.0027-0.9623,0.1796-1.3162,0.5227c-0.3538,0.3458-0.5549,0.8069-0.5603,1.3028
		c-0.008,0.4932,0.1796,0.9623,0.5227,1.3162c0.3458,0.3538,0.8095,0.5549,1.3028,0.5602h0.0268
		c0.4852,0,0.9409-0.185,1.2894-0.5227c0.7318-0.7131,0.7479-1.8872,0.0375-2.619C9.5713,33.8936,9.1102,33.6952,8.6143,33.6898z
		 M9.1317,36.0997c-0.1447,0.1421-0.3378,0.2198-0.5415,0.2198H8.5795c-0.2091-0.0027-0.4048-0.0858-0.5495-0.2359
		c-0.1474-0.1501-0.2198-0.3458-0.2198-0.5415c0-0.2037,0.0777-0.4075,0.2359-0.5603c0.1447-0.1421,0.3378-0.2198,0.5442-0.2198
		h0.0107c0.2064,0.0027,0.4021,0.0858,0.5468,0.2332C9.448,35.3036,9.4399,35.7995,9.1317,36.0997z"/>
</g>
</svg>
