<?xml version="1.0" encoding="utf-8"?>
<!-- Generator: Adobe Illustrator 21.1.0, SVG Export Plug-In . SVG Version: 6.00 Build 0)  -->
<svg version="1.1" id="Layer_1" xmlns="http://www.w3.org/2000/svg" xmlns:xlink="http://www.w3.org/1999/xlink" x="0px" y="0px"
	 viewBox="0 0 250 250" style="enable-background:new 0 0 250 250;" xml:space="preserve">
<style type="text/css">
	.st0{fill:url(#SVGID_1_);}
	.st1{fill:url(#SVGID_2_);}
	.st2{fill:url(#SVGID_3_);}
	.st3{fill:url(#SVGID_4_);}
	.st4{fill:url(#SVGID_5_);}
	.st5{fill:url(#SVGID_6_);}
</style>
<g>
	<g>
		
			<linearGradient id="SVGID_1_" gradientUnits="userSpaceOnUse" x1="125" y1="130.4611" x2="125" y2="225.1139" gradientTransform="matrix(1 0 0 -1 0 252)">
			<stop  offset="2.165098e-07" style="stop-color:#D8875A"/>
			<stop  offset="4.085643e-02" style="stop-color:#D88A5B"/>
			<stop  offset="0.4835" style="stop-color:#DCAA5B"/>
			<stop  offset="0.8168" style="stop-color:#DFC15B"/>
			<stop  offset="1" style="stop-color:#E1C95C"/>
		</linearGradient>
		<path class="st0" d="M244.8,119.6c-0.2-0.8-0.4-1.6-0.6-2.4c-0.5-1.7-1-3.5-1.6-5.2c-0.6-2-1.4-4-2.1-5.9
			C222.6,59.8,177.7,26.9,125,26.9S27.4,59.8,9.5,106.2c-0.8,2-1.5,3.9-2.1,5.9c-0.6,1.7-1.1,3.4-1.6,5.2c-0.2,0.8-0.4,1.6-0.6,2.4
			c-0.2,0.6-0.3,1.3-0.5,1.9h240.5C245.1,120.9,244.9,120.2,244.8,119.6z"/>
	</g>
	<g>
		
			<linearGradient id="SVGID_2_" gradientUnits="userSpaceOnUse" x1="124.8512" y1="28.8861" x2="124.8512" y2="45.0532" gradientTransform="matrix(1 0 0 -1 0 252)">
			<stop  offset="0" style="stop-color:#C85149"/>
			<stop  offset="0.7422" style="stop-color:#CC6052"/>
			<stop  offset="1" style="stop-color:#CD6657"/>
		</linearGradient>
		<path class="st1" d="M15.6,208.5c1.1,2.1,2.3,4.3,3.6,6.2c0.9,1.5,1.9,3,2.8,4.5c0.9,1.3,1.8,2.6,2.7,3.9H225
			c0.9-1.3,1.9-2.6,2.7-3.9c1-1.5,1.9-3,2.8-4.5c1.3-2.1,2.5-4.2,3.6-6.2c0.3-0.5,0.6-1,0.8-1.6h-220
			C15.2,207.5,15.5,208,15.6,208.5z"/>
	</g>
	<g>
		
			<linearGradient id="SVGID_3_" gradientUnits="userSpaceOnUse" x1="125" y1="75.9591" x2="125" y2="104.8763" gradientTransform="matrix(1 0 0 -1 0 252)">
			<stop  offset="0" style="stop-color:#D06B4E"/>
			<stop  offset="1" style="stop-color:#D27557"/>
		</linearGradient>
		<path class="st2" d="M248.5,147.1H1.4c0,1.2-0.1,2.3-0.1,3.5c0,1.2,0,2.4,0.1,3.6c0,1.3,0.1,2.6,0.2,3.8c0.1,1.5,0.2,3,0.3,4.5
			c0.3,3,0.7,5.9,1.2,8.7c0.1,0.9,0.3,1.7,0.5,2.6c0.1,0.8,0.3,1.5,0.5,2.3H246c0.2-0.8,0.3-1.5,0.5-2.3c0.2-0.9,0.3-1.7,0.5-2.6
			c0.5-2.9,0.9-5.8,1.2-8.7c0.1-1.5,0.3-3,0.3-4.5c0.1-1.3,0.1-2.6,0.2-3.8c0-1.2,0.1-2.4,0.1-3.6
			C248.6,149.4,248.6,148.3,248.5,147.1z"/>
	</g>
</g>
<g>
	<g>
		
			<linearGradient id="SVGID_4_" gradientUnits="userSpaceOnUse" x1="125" y1="130.4611" x2="125" y2="225.1139" gradientTransform="matrix(1 0 0 -1 0 252)">
			<stop  offset="2.165098e-07" style="stop-color:#D8875A"/>
			<stop  offset="4.085643e-02" style="stop-color:#D88A5B"/>
			<stop  offset="0.4835" style="stop-color:#DCAA5B"/>
			<stop  offset="0.8168" style="stop-color:#DFC15B"/>
			<stop  offset="1" style="stop-color:#E1C95C"/>
		</linearGradient>
		<path class="st3" d="M244.8,119.6c-0.2-0.8-0.4-1.6-0.6-2.4c-0.5-1.7-1-3.5-1.6-5.2c-0.6-2-1.4-4-2.1-5.9
			C222.6,59.8,177.7,26.9,125,26.9S27.4,59.8,9.5,106.2c-0.8,2-1.5,3.9-2.1,5.9c-0.6,1.7-1.1,3.4-1.6,5.2c-0.2,0.8-0.4,1.6-0.6,2.4
			c-0.2,0.6-0.3,1.3-0.5,1.9h240.5C245.1,120.9,244.9,120.2,244.8,119.6z"/>
	</g>
	<g>
		
			<linearGradient id="SVGID_5_" gradientUnits="userSpaceOnUse" x1="124.8512" y1="28.8861" x2="124.8512" y2="45.0532" gradientTransform="matrix(1 0 0 -1 0 252)">
			<stop  offset="0" style="stop-color:#C85149"/>
			<stop  offset="0.7422" style="stop-color:#CC6052"/>
			<stop  offset="1" style="stop-color:#CD6657"/>
		</linearGradient>
		<path class="st4" d="M15.6,208.5c1.1,2.1,2.3,4.3,3.6,6.2c0.9,1.5,1.9,3,2.8,4.5c0.9,1.3,1.8,2.6,2.7,3.9H225
			c0.9-1.3,1.9-2.6,2.7-3.9c1-1.5,1.9-3,2.8-4.5c1.3-2.1,2.5-4.2,3.6-6.2c0.3-0.5,0.6-1,0.8-1.6h-220
			C15.2,207.5,15.5,208,15.6,208.5z"/>
	</g>
	<g>
		
			<linearGradient id="SVGID_6_" gradientUnits="userSpaceOnUse" x1="125" y1="75.9591" x2="125" y2="104.8763" gradientTransform="matrix(1 0 0 -1 0 252)">
			<stop  offset="0" style="stop-color:#D06B4E"/>
			<stop  offset="1" style="stop-color:#D27557"/>
		</linearGradient>
		<path class="st5" d="M248.5,147.1H1.4c0,1.2-0.1,2.3-0.1,3.5c0,1.2,0,2.4,0.1,3.6c0,1.3,0.1,2.6,0.2,3.8c0.1,1.5,0.2,3,0.3,4.5
			c0.3,3,0.7,5.9,1.2,8.7c0.1,0.9,0.3,1.7,0.5,2.6c0.1,0.8,0.3,1.5,0.5,2.3H246c0.2-0.8,0.3-1.5,0.5-2.3c0.2-0.9,0.3-1.7,0.5-2.6
			c0.5-2.9,0.9-5.8,1.2-8.7c0.1-1.5,0.3-3,0.3-4.5c0.1-1.3,0.1-2.6,0.2-3.8c0-1.2,0.1-2.4,0.1-3.6
			C248.6,149.4,248.6,148.3,248.5,147.1z"/>
	</g>
</g>
</svg>
